ISO-10303-21;
HEADER;
/* Generated by software containing ST-Developer
 * from STEP Tools, Inc. (www.steptools.com) 
 */
/* OPTION: using custom renumber hook */

FILE_DESCRIPTION(
/* description */ ('STEP AP242 Edition 2',
'CAx-IF Rec.Pracs.---Representation and Presentation of Product Manufa
cturing Information (PMI)---4.0---2014-10-13',
'CAx-IF Rec.Pracs.---3D Tessellated Geometry---0.4---2014-09-14','2;1',
'CAx-IF Rec.Pracs.---User Defined Attributes---1.5---2016-08-15'),
/* implementation_level */ '2;1');

FILE_NAME(
/* name */ 'PCM + AudioJack',
/* time_stamp */ '2026-06-20T00:14:35Z',
/* author */ (''),
/* organization */ (''),
/* preprocessor_version */ 'ST-DEVELOPER v20',
/* originating_system */ 'ONSHAPE BY PTC INC, 1.216',
/* authorisation */ '  ');

FILE_SCHEMA (('AP242_MANAGED_MODEL_BASED_3D_ENGINEERING_MIM_LF { 1 0 10303 442 3 1 4 }'));
ENDSEC;

DATA;
#10=SHAPE_REPRESENTATION_RELATIONSHIP('','',#246,#11);
#11=ADVANCED_BREP_SHAPE_REPRESENTATION('',(#244),#394);
#12=CYLINDRICAL_SURFACE('',#262,0.00175);
#13=CYLINDRICAL_SURFACE('',#265,0.00225);
#14=LINE('',#336,#39);
#15=LINE('',#339,#40);
#16=LINE('',#341,#41);
#17=LINE('',#343,#42);
#18=LINE('',#345,#43);
#19=LINE('',#347,#44);
#20=LINE('',#349,#45);
#21=LINE('',#351,#46);
#22=LINE('',#353,#47);
#23=LINE('',#355,#48);
#24=LINE('',#357,#49);
#25=LINE('',#359,#50);
#26=LINE('',#362,#51);
#27=LINE('',#363,#52);
#28=LINE('',#365,#53);
#29=LINE('',#367,#54);
#30=LINE('',#369,#55);
#31=LINE('',#372,#56);
#32=LINE('',#373,#57);
#33=LINE('',#375,#58);
#34=LINE('',#377,#59);
#35=LINE('',#378,#60);
#36=LINE('',#381,#61);
#37=LINE('',#383,#62);
#38=LINE('',#386,#63);
#39=VECTOR('',#276,1.);
#40=VECTOR('',#277,1.);
#41=VECTOR('',#278,1.);
#42=VECTOR('',#279,1.);
#43=VECTOR('',#282,1.);
#44=VECTOR('',#283,1.);
#45=VECTOR('',#284,1.);
#46=VECTOR('',#285,1.);
#47=VECTOR('',#286,1.);
#48=VECTOR('',#287,1.);
#49=VECTOR('',#288,1.);
#50=VECTOR('',#291,1.);
#51=VECTOR('',#292,1.);
#52=VECTOR('',#293,1.);
#53=VECTOR('',#296,1.);
#54=VECTOR('',#297,1.);
#55=VECTOR('',#300,1.);
#56=VECTOR('',#301,1.);
#57=VECTOR('',#302,1.);
#58=VECTOR('',#305,1.);
#59=VECTOR('',#306,1.);
#60=VECTOR('',#307,1.);
#61=VECTOR('',#310,1.);
#62=VECTOR('',#313,1.);
#63=VECTOR('',#318,1.);
#64=ORIENTED_EDGE('',*,*,#122,.F.);
#65=ORIENTED_EDGE('',*,*,#123,.T.);
#66=ORIENTED_EDGE('',*,*,#124,.F.);
#67=ORIENTED_EDGE('',*,*,#125,.T.);
#68=ORIENTED_EDGE('',*,*,#126,.T.);
#69=ORIENTED_EDGE('',*,*,#127,.F.);
#70=ORIENTED_EDGE('',*,*,#128,.T.);
#71=ORIENTED_EDGE('',*,*,#127,.T.);
#72=ORIENTED_EDGE('',*,*,#129,.T.);
#73=ORIENTED_EDGE('',*,*,#130,.F.);
#74=ORIENTED_EDGE('',*,*,#131,.T.);
#75=ORIENTED_EDGE('',*,*,#132,.T.);
#76=ORIENTED_EDGE('',*,*,#133,.F.);
#77=ORIENTED_EDGE('',*,*,#134,.F.);
#78=ORIENTED_EDGE('',*,*,#135,.F.);
#79=ORIENTED_EDGE('',*,*,#136,.F.);
#80=ORIENTED_EDGE('',*,*,#133,.T.);
#81=ORIENTED_EDGE('',*,*,#137,.T.);
#82=ORIENTED_EDGE('',*,*,#138,.F.);
#83=ORIENTED_EDGE('',*,*,#139,.F.);
#84=ORIENTED_EDGE('',*,*,#134,.T.);
#85=ORIENTED_EDGE('',*,*,#136,.T.);
#86=ORIENTED_EDGE('',*,*,#140,.F.);
#87=ORIENTED_EDGE('',*,*,#141,.T.);
#88=ORIENTED_EDGE('',*,*,#130,.T.);
#89=ORIENTED_EDGE('',*,*,#142,.F.);
#90=ORIENTED_EDGE('',*,*,#143,.T.);
#91=ORIENTED_EDGE('',*,*,#144,.F.);
#92=ORIENTED_EDGE('',*,*,#131,.F.);
#93=ORIENTED_EDGE('',*,*,#141,.F.);
#94=ORIENTED_EDGE('',*,*,#145,.T.);
#95=ORIENTED_EDGE('',*,*,#146,.F.);
#96=ORIENTED_EDGE('',*,*,#147,.T.);
#97=ORIENTED_EDGE('',*,*,#124,.T.);
#98=ORIENTED_EDGE('',*,*,#128,.F.);
#99=ORIENTED_EDGE('',*,*,#139,.T.);
#100=ORIENTED_EDGE('',*,*,#148,.T.);
#101=ORIENTED_EDGE('',*,*,#137,.F.);
#102=ORIENTED_EDGE('',*,*,#132,.F.);
#103=ORIENTED_EDGE('',*,*,#144,.T.);
#104=ORIENTED_EDGE('',*,*,#143,.F.);
#105=ORIENTED_EDGE('',*,*,#138,.T.);
#106=ORIENTED_EDGE('',*,*,#135,.T.);
#107=ORIENTED_EDGE('',*,*,#148,.F.);
#108=ORIENTED_EDGE('',*,*,#129,.F.);
#109=ORIENTED_EDGE('',*,*,#126,.F.);
#110=ORIENTED_EDGE('',*,*,#149,.T.);
#111=ORIENTED_EDGE('',*,*,#142,.T.);
#112=ORIENTED_EDGE('',*,*,#147,.F.);
#113=ORIENTED_EDGE('',*,*,#145,.F.);
#114=ORIENTED_EDGE('',*,*,#140,.T.);
#115=ORIENTED_EDGE('',*,*,#149,.F.);
#116=ORIENTED_EDGE('',*,*,#125,.F.);
#117=ORIENTED_EDGE('',*,*,#150,.F.);
#118=ORIENTED_EDGE('',*,*,#122,.T.);
#119=ORIENTED_EDGE('',*,*,#150,.T.);
#120=ORIENTED_EDGE('',*,*,#123,.F.);
#121=ORIENTED_EDGE('',*,*,#146,.T.);
#122=EDGE_CURVE('',#151,#151,#171,.T.);
#123=EDGE_CURVE('',#152,#152,#172,.T.);
#124=EDGE_CURVE('',#153,#154,#14,.T.);
#125=EDGE_CURVE('',#153,#155,#15,.T.);
#126=EDGE_CURVE('',#155,#156,#16,.T.);
#127=EDGE_CURVE('',#154,#156,#17,.T.);
#128=EDGE_CURVE('',#157,#154,#18,.T.);
#129=EDGE_CURVE('',#156,#158,#19,.T.);
#130=EDGE_CURVE('',#159,#158,#20,.T.);
#131=EDGE_CURVE('',#159,#160,#21,.T.);
#132=EDGE_CURVE('',#160,#161,#22,.T.);
#133=EDGE_CURVE('',#162,#161,#23,.T.);
#134=EDGE_CURVE('',#157,#162,#24,.T.);
#135=EDGE_CURVE('',#163,#164,#25,.T.);
#136=EDGE_CURVE('',#162,#163,#26,.T.);
#137=EDGE_CURVE('',#161,#164,#27,.T.);
#138=EDGE_CURVE('',#165,#163,#28,.T.);
#139=EDGE_CURVE('',#157,#165,#29,.T.);
#140=EDGE_CURVE('',#166,#167,#30,.T.);
#141=EDGE_CURVE('',#166,#159,#31,.T.);
#142=EDGE_CURVE('',#167,#158,#32,.T.);
#143=EDGE_CURVE('',#165,#168,#33,.T.);
#144=EDGE_CURVE('',#160,#168,#34,.T.);
#145=EDGE_CURVE('',#166,#169,#35,.T.);
#146=EDGE_CURVE('',#169,#169,#173,.F.);
#147=EDGE_CURVE('',#169,#153,#36,.T.);
#148=EDGE_CURVE('',#168,#164,#37,.T.);
#149=EDGE_CURVE('',#155,#167,#38,.T.);
#150=EDGE_CURVE('',#170,#170,#174,.T.);
#151=VERTEX_POINT('',#332);
#152=VERTEX_POINT('',#334);
#153=VERTEX_POINT('',#337);
#154=VERTEX_POINT('',#338);
#155=VERTEX_POINT('',#340);
#156=VERTEX_POINT('',#342);
#157=VERTEX_POINT('',#346);
#158=VERTEX_POINT('',#348);
#159=VERTEX_POINT('',#350);
#160=VERTEX_POINT('',#352);
#161=VERTEX_POINT('',#354);
#162=VERTEX_POINT('',#356);
#163=VERTEX_POINT('',#360);
#164=VERTEX_POINT('',#361);
#165=VERTEX_POINT('',#366);
#166=VERTEX_POINT('',#370);
#167=VERTEX_POINT('',#371);
#168=VERTEX_POINT('',#376);
#169=VERTEX_POINT('',#379);
#170=VERTEX_POINT('',#390);
#171=CIRCLE('',#249,0.00175);
#172=CIRCLE('',#250,0.00225);
#173=CIRCLE('',#257,0.00225);
#174=CIRCLE('',#263,0.00175);
#175=EDGE_LOOP('',(#64));
#176=EDGE_LOOP('',(#65));
#177=EDGE_LOOP('',(#66,#67,#68,#69));
#178=EDGE_LOOP('',(#70,#71,#72,#73,#74,#75,#76,#77));
#179=EDGE_LOOP('',(#78,#79,#80,#81));
#180=EDGE_LOOP('',(#82,#83,#84,#85));
#181=EDGE_LOOP('',(#86,#87,#88,#89));
#182=EDGE_LOOP('',(#90,#91,#92,#93,#94,#95,#96,#97,#98,#99));
#183=EDGE_LOOP('',(#100,#101,#102,#103));
#184=EDGE_LOOP('',(#104,#105,#106,#107));
#185=EDGE_LOOP('',(#108,#109,#110,#111));
#186=EDGE_LOOP('',(#112,#113,#114,#115,#116));
#187=EDGE_LOOP('',(#117));
#188=EDGE_LOOP('',(#118));
#189=EDGE_LOOP('',(#119));
#190=EDGE_LOOP('',(#120));
#191=EDGE_LOOP('',(#121));
#192=FACE_BOUND('',#175,.T.);
#193=FACE_BOUND('',#176,.T.);
#194=FACE_BOUND('',#177,.T.);
#195=FACE_BOUND('',#178,.T.);
#196=FACE_BOUND('',#179,.T.);
#197=FACE_BOUND('',#180,.T.);
#198=FACE_BOUND('',#181,.T.);
#199=FACE_BOUND('',#182,.T.);
#200=FACE_BOUND('',#183,.T.);
#201=FACE_BOUND('',#184,.T.);
#202=FACE_BOUND('',#185,.T.);
#203=FACE_BOUND('',#186,.T.);
#204=FACE_BOUND('',#187,.T.);
#205=FACE_BOUND('',#188,.T.);
#206=FACE_BOUND('',#189,.T.);
#207=FACE_BOUND('',#190,.T.);
#208=FACE_BOUND('',#191,.T.);
#209=PLANE('',#248);
#210=PLANE('',#251);
#211=PLANE('',#252);
#212=PLANE('',#253);
#213=PLANE('',#254);
#214=PLANE('',#255);
#215=PLANE('',#256);
#216=PLANE('',#258);
#217=PLANE('',#259);
#218=PLANE('',#260);
#219=PLANE('',#261);
#220=PLANE('',#264);
#221=ADVANCED_FACE('',(#192,#193),#209,.T.);
#222=ADVANCED_FACE('',(#194),#210,.T.);
#223=ADVANCED_FACE('',(#195),#211,.T.);
#224=ADVANCED_FACE('',(#196),#212,.T.);
#225=ADVANCED_FACE('',(#197),#213,.T.);
#226=ADVANCED_FACE('',(#198),#214,.F.);
#227=ADVANCED_FACE('',(#199),#215,.F.);
#228=ADVANCED_FACE('',(#200),#216,.F.);
#229=ADVANCED_FACE('',(#201),#217,.F.);
#230=ADVANCED_FACE('',(#202),#218,.T.);
#231=ADVANCED_FACE('',(#203),#219,.T.);
#232=ADVANCED_FACE('',(#204,#205),#12,.F.);
#233=ADVANCED_FACE('',(#206),#220,.T.);
#234=ADVANCED_FACE('',(#207,#208),#13,.T.);
#235=CLOSED_SHELL('',(#221,#222,#223,#224,#225,#226,#227,#228,#229,#230,
#231,#232,#233,#234));
#236=STYLED_ITEM('',(#237),#244);
#237=PRESENTATION_STYLE_ASSIGNMENT((#238));
#238=SURFACE_STYLE_USAGE(.BOTH.,#239);
#239=SURFACE_SIDE_STYLE('',(#240));
#240=SURFACE_STYLE_FILL_AREA(#241);
#241=FILL_AREA_STYLE('',(#242));
#242=FILL_AREA_STYLE_COLOUR('',#243);
#243=COLOUR_RGB('',0.615686274509804,0.811764705882353,0.929411764705882);
#244=MANIFOLD_SOLID_BREP('Part 1',#235);
#245=SHAPE_DEFINITION_REPRESENTATION(#399,#246);
#246=SHAPE_REPRESENTATION('Part 1',(#247),#394);
#247=AXIS2_PLACEMENT_3D('',#329,#266,#267);
#248=AXIS2_PLACEMENT_3D('',#330,#268,#269);
#249=AXIS2_PLACEMENT_3D('',#331,#270,#271);
#250=AXIS2_PLACEMENT_3D('',#333,#272,#273);
#251=AXIS2_PLACEMENT_3D('',#335,#274,#275);
#252=AXIS2_PLACEMENT_3D('',#344,#280,#281);
#253=AXIS2_PLACEMENT_3D('',#358,#289,#290);
#254=AXIS2_PLACEMENT_3D('',#364,#294,#295);
#255=AXIS2_PLACEMENT_3D('',#368,#298,#299);
#256=AXIS2_PLACEMENT_3D('',#374,#303,#304);
#257=AXIS2_PLACEMENT_3D('',#380,#308,#309);
#258=AXIS2_PLACEMENT_3D('',#382,#311,#312);
#259=AXIS2_PLACEMENT_3D('',#384,#314,#315);
#260=AXIS2_PLACEMENT_3D('',#385,#316,#317);
#261=AXIS2_PLACEMENT_3D('',#387,#319,#320);
#262=AXIS2_PLACEMENT_3D('',#388,#321,#322);
#263=AXIS2_PLACEMENT_3D('',#389,#323,#324);
#264=AXIS2_PLACEMENT_3D('',#391,#325,#326);
#265=AXIS2_PLACEMENT_3D('',#392,#327,#328);
#266=DIRECTION('',(0.,0.,1.));
#267=DIRECTION('',(1.,0.,0.));
#268=DIRECTION('',(1.44560289664734E-16,-1.,0.));
#269=DIRECTION('',(1.,1.44560289664734E-16,0.));
#270=DIRECTION('',(1.44560289664734E-16,-1.,0.));
#271=DIRECTION('',(1.,1.44560289664734E-16,0.));
#272=DIRECTION('',(1.44560289664734E-16,-1.,0.));
#273=DIRECTION('',(1.,1.44560289664734E-16,0.));
#274=DIRECTION('',(-1.,0.,0.));
#275=DIRECTION('',(0.,0.,1.));
#276=DIRECTION('',(0.,0.,-1.));
#277=DIRECTION('',(0.,1.,0.));
#278=DIRECTION('',(0.,0.,-1.));
#279=DIRECTION('',(0.,1.,0.));
#280=DIRECTION('',(0.,0.,1.));
#281=DIRECTION('',(1.,0.,0.));
#282=DIRECTION('',(1.,0.,0.));
#283=DIRECTION('',(1.,0.,0.));
#284=DIRECTION('',(0.,1.,0.));
#285=DIRECTION('',(1.,0.,0.));
#286=DIRECTION('',(0.,1.,0.));
#287=DIRECTION('',(1.,0.,0.));
#288=DIRECTION('',(0.,1.,0.));
#289=DIRECTION('',(0.,1.,0.));
#290=DIRECTION('',(0.,0.,1.));
#291=DIRECTION('',(1.,0.,0.));
#292=DIRECTION('',(0.,0.,-1.));
#293=DIRECTION('',(0.,0.,-1.));
#294=DIRECTION('',(-1.,0.,0.));
#295=DIRECTION('',(0.,0.,1.));
#296=DIRECTION('',(0.,1.,0.));
#297=DIRECTION('',(0.,0.,-1.));
#298=DIRECTION('',(-1.,0.,0.));
#299=DIRECTION('',(0.,0.,1.));
#300=DIRECTION('',(0.,1.,0.));
#301=DIRECTION('',(0.,0.,-1.));
#302=DIRECTION('',(0.,0.,-1.));
#303=DIRECTION('',(0.,1.,0.));
#304=DIRECTION('',(0.,0.,1.));
#305=DIRECTION('',(1.,0.,0.));
#306=DIRECTION('',(0.,0.,-1.));
#307=DIRECTION('',(-1.,0.,0.));
#308=DIRECTION('',(0.,1.,0.));
#309=DIRECTION('',(0.,0.,1.));
#310=DIRECTION('',(-1.,0.,0.));
#311=DIRECTION('',(-1.,0.,0.));
#312=DIRECTION('',(0.,0.,1.));
#313=DIRECTION('',(0.,1.,0.));
#314=DIRECTION('',(0.,0.,1.));
#315=DIRECTION('',(1.,0.,0.));
#316=DIRECTION('',(0.,1.,0.));
#317=DIRECTION('',(0.,0.,1.));
#318=DIRECTION('',(1.,0.,0.));
#319=DIRECTION('',(0.,0.,1.));
#320=DIRECTION('',(1.,0.,0.));
#321=DIRECTION('',(1.44560289664734E-16,-1.,0.));
#322=DIRECTION('',(1.,1.44560289664734E-16,0.));
#323=DIRECTION('',(1.44560289664734E-16,-1.,0.));
#324=DIRECTION('',(1.,1.44560289664734E-16,0.));
#325=DIRECTION('',(1.44560289664734E-16,-1.,0.));
#326=DIRECTION('',(1.,1.44560289664734E-16,0.));
#327=DIRECTION('',(1.44560289664734E-16,-1.,0.));
#328=DIRECTION('',(1.,1.44560289664734E-16,0.));
#329=CARTESIAN_POINT('',(0.,0.,0.));
#330=CARTESIAN_POINT('',(0.027,-0.002,0.00125));
#331=CARTESIAN_POINT('',(0.027,-0.002,0.0035));
#332=CARTESIAN_POINT('',(0.02875,-0.002,0.0035));
#333=CARTESIAN_POINT('',(0.027,-0.002,0.0035));
#334=CARTESIAN_POINT('',(0.02925,-0.002,0.0035));
#335=CARTESIAN_POINT('',(0.024,-0.001,0.00125));
#336=CARTESIAN_POINT('',(0.024,0.,0.00125));
#337=CARTESIAN_POINT('',(0.024,0.,0.00575));
#338=CARTESIAN_POINT('',(0.024,0.,0.00125));
#339=CARTESIAN_POINT('',(0.024,0.006,0.00575));
#340=CARTESIAN_POINT('',(0.024,0.012,0.00575));
#341=CARTESIAN_POINT('',(0.024,0.012,0.00575));
#342=CARTESIAN_POINT('',(0.024,0.012,0.00125));
#343=CARTESIAN_POINT('',(0.024,0.006,0.00125));
#344=CARTESIAN_POINT('',(0.016,0.0075,0.00125));
#345=CARTESIAN_POINT('',(0.012,0.,0.00125));
#346=CARTESIAN_POINT('',(0.,0.,0.00125));
#347=CARTESIAN_POINT('',(0.027,0.012,0.00125));
#348=CARTESIAN_POINT('',(0.03,0.012,0.00125));
#349=CARTESIAN_POINT('',(0.03,-0.001,0.00125));
#350=CARTESIAN_POINT('',(0.03,0.,0.00125));
#351=CARTESIAN_POINT('',(0.031,0.,0.00125));
#352=CARTESIAN_POINT('',(0.032,0.,0.00125));
#353=CARTESIAN_POINT('',(0.032,0.0085,0.00125));
#354=CARTESIAN_POINT('',(0.032,0.017,0.00125));
#355=CARTESIAN_POINT('',(0.016,0.017,0.00125));
#356=CARTESIAN_POINT('',(0.,0.017,0.00125));
#357=CARTESIAN_POINT('',(0.,0.0085,0.00125));
#358=CARTESIAN_POINT('',(0.016,0.017,0.00125));
#359=CARTESIAN_POINT('',(0.016,0.017,0.));
#360=CARTESIAN_POINT('',(0.,0.017,0.));
#361=CARTESIAN_POINT('',(0.032,0.017,0.));
#362=CARTESIAN_POINT('',(0.,0.017,0.00125));
#363=CARTESIAN_POINT('',(0.032,0.017,0.00125));
#364=CARTESIAN_POINT('',(0.,0.0085,0.00125));
#365=CARTESIAN_POINT('',(0.,0.0085,0.));
#366=CARTESIAN_POINT('',(0.,0.,0.));
#367=CARTESIAN_POINT('',(0.,0.,0.00125));
#368=CARTESIAN_POINT('',(0.03,-0.001,0.00125));
#369=CARTESIAN_POINT('',(0.03,-0.001,0.00575));
#370=CARTESIAN_POINT('',(0.03,0.,0.00575));
#371=CARTESIAN_POINT('',(0.03,0.012,0.00575));
#372=CARTESIAN_POINT('',(0.03,0.,0.00125));
#373=CARTESIAN_POINT('',(0.03,0.012,0.00575));
#374=CARTESIAN_POINT('',(0.031,0.,0.00125));
#375=CARTESIAN_POINT('',(0.031,0.,0.));
#376=CARTESIAN_POINT('',(0.032,0.,0.));
#377=CARTESIAN_POINT('',(0.032,0.,0.00125));
#378=CARTESIAN_POINT('',(0.027,0.,0.00575));
#379=CARTESIAN_POINT('',(0.027,0.,0.00575));
#380=CARTESIAN_POINT('',(0.027,0.,0.0035));
#381=CARTESIAN_POINT('',(0.027,0.,0.00575));
#382=CARTESIAN_POINT('',(0.032,0.0085,0.00125));
#383=CARTESIAN_POINT('',(0.032,0.0085,0.));
#384=CARTESIAN_POINT('',(0.016,0.0075,0.));
#385=CARTESIAN_POINT('',(0.027,0.012,0.00575));
#386=CARTESIAN_POINT('',(0.027,0.012,0.00575));
#387=CARTESIAN_POINT('',(0.016,0.0075,0.00575));
#388=CARTESIAN_POINT('',(0.027,0.008,0.0035));
#389=CARTESIAN_POINT('',(0.027,0.008,0.0035));
#390=CARTESIAN_POINT('',(0.02875,0.008,0.0035));
#391=CARTESIAN_POINT('',(0.027,0.008,0.002875));
#392=CARTESIAN_POINT('',(0.027,1.9999999999994E-6,0.0035));
#393=MECHANICAL_DESIGN_GEOMETRIC_PRESENTATION_REPRESENTATION('',(#236),
#394);
#394=(
GEOMETRIC_REPRESENTATION_CONTEXT(3)
GLOBAL_UNCERTAINTY_ASSIGNED_CONTEXT((#395))
GLOBAL_UNIT_ASSIGNED_CONTEXT((#398,#397,#396))
REPRESENTATION_CONTEXT('Part 1','TOP_LEVEL_ASSEMBLY_PART')
);
#395=UNCERTAINTY_MEASURE_WITH_UNIT(LENGTH_MEASURE(1.E-8),#398,
'DISTANCE_ACCURACY_VALUE','Maximum Tolerance applied to model');
#396=(
NAMED_UNIT(*)
SI_UNIT($,.STERADIAN.)
SOLID_ANGLE_UNIT()
);
#397=(
NAMED_UNIT(*)
PLANE_ANGLE_UNIT()
SI_UNIT($,.RADIAN.)
);
#398=(
LENGTH_UNIT()
NAMED_UNIT(*)
SI_UNIT($,.METRE.)
);
#399=PRODUCT_DEFINITION_SHAPE('','',#400);
#400=PRODUCT_DEFINITION('','',#402,#401);
#401=PRODUCT_DEFINITION_CONTEXT('',#408,'design');
#402=PRODUCT_DEFINITION_FORMATION_WITH_SPECIFIED_SOURCE('','',#404,
 .NOT_KNOWN.);
#403=PRODUCT_RELATED_PRODUCT_CATEGORY('','',(#404));
#404=PRODUCT('Part 1','Part 1','Part 1',(#406));
#405=PRODUCT_CATEGORY('','');
#406=PRODUCT_CONTEXT('',#408,'mechanical');
#407=APPLICATION_PROTOCOL_DEFINITION('international standard',
'ap242_managed_model_based_3d_engineering',2020,#408);
#408=APPLICATION_CONTEXT('managed model based 3d engineering');
ENDSEC;
END-ISO-10303-21;
