M48
; DRILL file KiCad 10.0.1 date 2026-06-23T11:35:50
; FORMAT={-:-/ absolute / metric / decimal}
; #@! TF.CreationDate,2026-06-23T11:35:50-04:00
; #@! TF.GenerationSoftware,Kicad,Pcbnew,10.0.1
; #@! TF.FileFunction,Plated,1,2,PTH
FMAT,2
METRIC
; #@! TA.AperFunction,Plated,PTH,ViaDrill
T1C0.300
; #@! TA.AperFunction,Plated,PTH,ComponentDrill
T2C0.800
; #@! TA.AperFunction,Plated,PTH,ComponentDrill
T3C0.889
; #@! TA.AperFunction,Plated,PTH,ComponentDrill
T4C0.900
; #@! TA.AperFunction,Plated,PTH,ComponentDrill
T5C1.000
; #@! TA.AperFunction,Plated,PTH,ComponentDrill
T6C1.500
; #@! TA.AperFunction,Plated,PTH,ComponentDrill
T7C2.500
%
G90
G05
T1
X180.5Y-119.802
X180.5Y-123.9
X195.653Y-113.739
X203.0Y-116.0
X204.6Y-124.471
X205.0Y-121.4
X210.0Y-130.0
X239.75Y-93.25
X254.25Y-126.75
T2
X170.38Y-101.5
X170.38Y-105.0
X170.38Y-108.5
X178.0Y-101.5
X178.0Y-105.0
X178.0Y-108.5
X190.5Y-112.5
X198.12Y-112.5
X243.38Y-126.5
X244.38Y-118.5
X244.69Y-122.0
X244.88Y-112.0
X244.88Y-115.2
X251.0Y-126.5
X252.0Y-118.5
X252.31Y-122.0
X252.5Y-112.0
X252.5Y-115.2
X258.0Y-112.0
X258.0Y-114.54
T3
X171.88Y-113.26
X171.88Y-115.8
X171.88Y-118.34
X171.88Y-120.88
X171.88Y-123.42
X171.88Y-125.96
X171.88Y-128.5
X187.12Y-113.26
X187.12Y-115.8
X187.12Y-118.34
X187.12Y-120.88
X187.12Y-123.42
X187.12Y-125.96
X187.12Y-128.5
T4
X258.0Y-122.0
X258.0Y-124.0
X258.0Y-126.0
T5
X190.58Y-81.44
X190.58Y-83.95
X190.58Y-86.47
X190.58Y-88.99
X211.64Y-112.62
X211.64Y-115.16
X211.64Y-117.7
X211.64Y-120.24
X211.64Y-122.78
X211.64Y-125.32
X218.84Y-111.7
X221.38Y-111.7
X223.92Y-111.7
X226.46Y-111.7
X229.0Y-111.7
X231.54Y-111.7
X234.08Y-111.7
X236.62Y-111.7
X239.16Y-111.7
T6
X258.0Y-119.9
X258.0Y-128.1
T7
G00X183.0Y-76.562
M15
G01X183.0Y-76.438
M16
G05
G00X183.0Y-107.562
M15
G01X183.0Y-107.438
M16
G05
G00X258.0Y-76.562
M15
G01X258.0Y-76.438
M16
G05
G00X258.0Y-107.562
M15
G01X258.0Y-107.438
M16
G05
M30
