%TF.GenerationSoftware,KiCad,Pcbnew,10.0.1*%
%TF.CreationDate,2026-06-23T11:35:45-04:00*%
%TF.ProjectId,Walkman-in-2026,57616c6b-6d61-46e2-9d69-6e2d32303236,rev?*%
%TF.SameCoordinates,Original*%
%TF.FileFunction,Soldermask,Bot*%
%TF.FilePolarity,Negative*%
%FSLAX46Y46*%
G04 Gerber Fmt 4.6, Leading zero omitted, Abs format (unit mm)*
G04 Created by KiCad (PCBNEW 10.0.1) date 2026-06-23 11:35:45*
%MOMM*%
%LPD*%
G01*
G04 APERTURE LIST*
%ADD10C,1.600000*%
%ADD11C,3.200000*%
%ADD12C,1.524000*%
%ADD13C,0.900000*%
%ADD14C,1.400000*%
%ADD15O,3.500000X2.200000*%
%ADD16R,2.500000X1.500000*%
%ADD17O,2.500000X1.500000*%
G04 APERTURE END LIST*
D10*
%TO.C,U2*%
X190580000Y-88990000D03*
X190580000Y-86470000D03*
X190580000Y-83950000D03*
X190580000Y-81440000D03*
D11*
X183000000Y-76500000D03*
X183000000Y-107500000D03*
X258000000Y-76500000D03*
X258000000Y-107500000D03*
%TD*%
D12*
%TO.C,U1*%
X187120000Y-128500000D03*
X187120000Y-125960000D03*
X187120000Y-123420000D03*
X187120000Y-120880000D03*
X187120000Y-118340000D03*
X187120000Y-115800000D03*
X187120000Y-113260000D03*
X171880000Y-113260000D03*
X171880000Y-115800000D03*
X171880000Y-118340000D03*
X171880000Y-120880000D03*
X171880000Y-123420000D03*
X171880000Y-125960000D03*
X171880000Y-128500000D03*
%TD*%
D13*
%TO.C,SW3*%
X232605959Y-130000000D03*
X230305959Y-130000000D03*
%TD*%
D10*
%TO.C,U5*%
X211640000Y-112620000D03*
X211640000Y-115160000D03*
X211640000Y-117700000D03*
X211640000Y-120240000D03*
X211640000Y-122780000D03*
X211640000Y-125320000D03*
X218840000Y-111700000D03*
X221380000Y-111700000D03*
X223920000Y-111700000D03*
X226460000Y-111700000D03*
X229000000Y-111700000D03*
X231540000Y-111700000D03*
X234080000Y-111700000D03*
X236620000Y-111700000D03*
X239160000Y-111700000D03*
%TD*%
%TO.C,R7*%
X178000000Y-101500000D03*
X170380000Y-101500000D03*
%TD*%
D14*
%TO.C,JP1*%
X258000000Y-112000000D03*
X258000000Y-114540000D03*
%TD*%
D15*
%TO.C,SW4*%
X258000000Y-128100000D03*
X258000000Y-119900000D03*
D16*
X258000000Y-126000000D03*
D17*
X258000000Y-124000000D03*
X258000000Y-122000000D03*
%TD*%
D10*
%TO.C,R4*%
X244880000Y-115200000D03*
X252500000Y-115200000D03*
%TD*%
%TO.C,R10*%
X178000000Y-105000000D03*
X170380000Y-105000000D03*
%TD*%
D13*
%TO.C,SW6*%
X251905959Y-130000000D03*
X249605959Y-130000000D03*
%TD*%
D10*
%TO.C,R2*%
X252500000Y-112000000D03*
X244880000Y-112000000D03*
%TD*%
%TO.C,R5*%
X251000000Y-126500000D03*
X243380000Y-126500000D03*
%TD*%
%TO.C,R9*%
X252000000Y-118500000D03*
X244380000Y-118500000D03*
%TD*%
%TO.C,R3*%
X190500000Y-112500000D03*
X198120000Y-112500000D03*
%TD*%
D13*
%TO.C,SW1*%
X213605959Y-130000000D03*
X211305959Y-130000000D03*
%TD*%
%TO.C,SW2*%
X223105959Y-130000000D03*
X220805959Y-130000000D03*
%TD*%
D10*
%TO.C,R8*%
X252310000Y-122000000D03*
X244690000Y-122000000D03*
%TD*%
%TO.C,R6*%
X178000000Y-108500000D03*
X170380000Y-108500000D03*
%TD*%
D13*
%TO.C,SW5*%
X242405959Y-130000000D03*
X240105959Y-130000000D03*
%TD*%
M02*
