%TF.GenerationSoftware,KiCad,Pcbnew,10.0.1*%
%TF.CreationDate,2026-06-23T11:35:45-04:00*%
%TF.ProjectId,Walkman-in-2026,57616c6b-6d61-46e2-9d69-6e2d32303236,rev?*%
%TF.SameCoordinates,Original*%
%TF.FileFunction,Copper,L1,Top*%
%TF.FilePolarity,Positive*%
%FSLAX46Y46*%
G04 Gerber Fmt 4.6, Leading zero omitted, Abs format (unit mm)*
G04 Created by KiCad (PCBNEW 10.0.1) date 2026-06-23 11:35:45*
%MOMM*%
%LPD*%
G01*
G04 APERTURE LIST*
G04 Aperture macros list*
%AMRoundRect*
0 Rectangle with rounded corners*
0 $1 Rounding radius*
0 $2 $3 $4 $5 $6 $7 $8 $9 X,Y pos of 4 corners*
0 Add a 4 corners polygon primitive as box body*
4,1,4,$2,$3,$4,$5,$6,$7,$8,$9,$2,$3,0*
0 Add four circle primitives for the rounded corners*
1,1,$1+$1,$2,$3*
1,1,$1+$1,$4,$5*
1,1,$1+$1,$6,$7*
1,1,$1+$1,$8,$9*
0 Add four rect primitives between the rounded corners*
20,1,$1+$1,$2,$3,$4,$5,0*
20,1,$1+$1,$4,$5,$6,$7,0*
20,1,$1+$1,$6,$7,$8,$9,0*
20,1,$1+$1,$8,$9,$2,$3,0*%
%AMFreePoly0*
4,1,19,0.785442,0.785442,0.800087,0.750087,0.800087,0.050089,0.800062,0.050028,0.800062,-0.749935,0.785417,-0.785290,0.750062,-0.799935,-0.049936,-0.799935,-0.085291,-0.785290,-0.099936,-0.749935,-0.099936,0.000089,-0.749910,0.000089,-0.785265,0.014734,-0.799910,0.050089,-0.799910,0.750087,-0.785265,0.785442,-0.749910,0.800087,0.750087,0.800087,0.785442,0.785442,0.785442,0.785442,
$1*%
%AMFreePoly1*
4,1,22,0.050101,0.800087,0.750011,0.800087,0.785366,0.785442,0.800011,0.750087,0.800011,0.050089,0.785366,0.014734,0.750011,0.000089,0.100038,0.000089,0.100038,-0.749884,0.085393,-0.785239,0.050038,-0.799884,-0.749960,-0.799884,-0.785315,-0.785239,-0.799960,-0.749884,-0.799960,0.050026,-0.799986,0.050089,-0.799986,0.750087,-0.785341,0.785442,-0.785315,0.785468,-0.749960,0.800113,
0.050038,0.800113,0.050101,0.800087,0.050101,0.800087,$1*%
G04 Aperture macros list end*
%TA.AperFunction,ComponentPad*%
%ADD10C,1.600000*%
%TD*%
%TA.AperFunction,ComponentPad*%
%ADD11C,3.200000*%
%TD*%
%TA.AperFunction,SMDPad,CuDef*%
%ADD12RoundRect,0.152400X-1.063600X-0.609600X1.063600X-0.609600X1.063600X0.609600X-1.063600X0.609600X0*%
%TD*%
%TA.AperFunction,ComponentPad*%
%ADD13C,1.524000*%
%TD*%
%TA.AperFunction,SMDPad,CuDef*%
%ADD14RoundRect,0.152400X1.063600X0.609600X-1.063600X0.609600X-1.063600X-0.609600X1.063600X-0.609600X0*%
%TD*%
%TA.AperFunction,SMDPad,CuDef*%
%ADD15RoundRect,0.254000X-0.762000X-0.254000X0.762000X-0.254000X0.762000X0.254000X-0.762000X0.254000X0*%
%TD*%
%TA.AperFunction,SMDPad,CuDef*%
%ADD16R,1.200000X1.200000*%
%TD*%
%TA.AperFunction,SMDPad,CuDef*%
%ADD17FreePoly0,180.000000*%
%TD*%
%TA.AperFunction,SMDPad,CuDef*%
%ADD18FreePoly1,180.000000*%
%TD*%
%TA.AperFunction,ComponentPad*%
%ADD19C,1.400000*%
%TD*%
%TA.AperFunction,SMDPad,CuDef*%
%ADD20R,0.800000X1.500000*%
%TD*%
%TA.AperFunction,SMDPad,CuDef*%
%ADD21RoundRect,0.362500X0.362500X0.637500X-0.362500X0.637500X-0.362500X-0.637500X0.362500X-0.637500X0*%
%TD*%
%TA.AperFunction,ComponentPad*%
%ADD22O,3.500000X2.200000*%
%TD*%
%TA.AperFunction,ComponentPad*%
%ADD23R,2.500000X1.500000*%
%TD*%
%TA.AperFunction,ComponentPad*%
%ADD24O,2.500000X1.500000*%
%TD*%
%TA.AperFunction,SMDPad,CuDef*%
%ADD25RoundRect,0.150000X-0.150000X0.587500X-0.150000X-0.587500X0.150000X-0.587500X0.150000X0.587500X0*%
%TD*%
%TA.AperFunction,SMDPad,CuDef*%
%ADD26RoundRect,0.150000X-0.587500X-0.150000X0.587500X-0.150000X0.587500X0.150000X-0.587500X0.150000X0*%
%TD*%
%TA.AperFunction,ViaPad*%
%ADD27C,0.600000*%
%TD*%
%TA.AperFunction,Conductor*%
%ADD28C,0.200000*%
%TD*%
G04 APERTURE END LIST*
D10*
%TO.P,U2,4,SCL_4*%
%TO.N,Net-(Q2-D)*%
X190580000Y-88990000D03*
%TO.P,U2,3,SDA_3*%
%TO.N,Net-(Q1-D)*%
X190580000Y-86470000D03*
%TO.P,U2,2,VCC_2*%
%TO.N,VBUS*%
X190580000Y-83950000D03*
%TO.P,U2,1,GND_1*%
%TO.N,GND*%
X190580000Y-81440000D03*
D11*
%TO.P,U2,0*%
%TO.N,N/C*%
X183000000Y-76500000D03*
X183000000Y-107500000D03*
X258000000Y-76500000D03*
X258000000Y-107500000D03*
%TD*%
D12*
%TO.P,U1,1,GPIO1_A0_D0_1*%
%TO.N,GPIO1*%
X187955000Y-128500000D03*
D13*
X187120000Y-128500000D03*
D12*
%TO.P,U1,2,GPIO2_A1_D1_2*%
%TO.N,DAT3*%
X187955000Y-125960000D03*
D13*
X187120000Y-125960000D03*
D12*
%TO.P,U1,3,GPIO3_A2_D2_3*%
%TO.N,AJDIN*%
X187955000Y-123420000D03*
D13*
X187120000Y-123420000D03*
D12*
%TO.P,U1,4,GPIO4_A3_D3_4*%
%TO.N,unconnected-(U1-GPIO4_A3_D3-Pad4)*%
X187955000Y-120880000D03*
D13*
%TO.N,unconnected-(U1-GPIO4_A3_D3-Pad4)_1*%
X187120000Y-120880000D03*
D12*
%TO.P,U1,5,GPIO5_A4_D4_SDA_5*%
%TO.N,SDA*%
X187955000Y-118340000D03*
D13*
X187120000Y-118340000D03*
D12*
%TO.P,U1,6,GPIO6_A5_D5_SCL_6*%
%TO.N,SCL*%
X187955000Y-115800000D03*
D13*
X187120000Y-115800000D03*
D12*
%TO.P,U1,7,GPIO43_D6_TX_7*%
%TO.N,AJBCK*%
X187955000Y-113260000D03*
D13*
X187120000Y-113260000D03*
%TO.P,U1,8,GPIO44_D7_RX_8*%
%TO.N,AJLCK*%
X171880000Y-113260000D03*
D14*
X171045000Y-113260000D03*
D13*
%TO.P,U1,9,GPIO7_A8_D8_SCK_9*%
%TO.N,SCK*%
X171880000Y-115800000D03*
D14*
X171045000Y-115800000D03*
D13*
%TO.P,U1,10,GPIO8_A9_D9_MISO_10*%
%TO.N,MISO*%
X171880000Y-118340000D03*
D14*
X171045000Y-118340000D03*
D13*
%TO.P,U1,11,GPIO9_A10_D10_MOSI_11*%
%TO.N,MOSI*%
X171880000Y-120880000D03*
D14*
X171045000Y-120880000D03*
D13*
%TO.P,U1,12,3V3_12*%
%TO.N,+3.3V*%
X171880000Y-123420000D03*
D14*
X171045000Y-123420000D03*
D13*
%TO.P,U1,13,GND_13*%
%TO.N,GND*%
X171880000Y-125960000D03*
D14*
X171045000Y-125960000D03*
D13*
%TO.P,U1,14,VBUS_14*%
%TO.N,VBUS*%
X171880000Y-128500000D03*
D14*
X171045000Y-128500000D03*
D15*
%TO.P,U1,15,BATT-_15*%
%TO.N,BATT-*%
X184000000Y-123168000D03*
%TO.P,U1,16,BATT+_16*%
%TO.N,BATT+*%
X184000000Y-121263000D03*
%TD*%
D16*
%TO.P,SW3,1,1_1*%
%TO.N,GND*%
X233555959Y-128700000D03*
%TO.P,SW3,2,2_2*%
%TO.N,Net-(R4-Pad1)*%
X229355959Y-128700000D03*
D17*
%TO.P,SW3,3*%
%TO.N,N/C*%
X228005959Y-130540000D03*
D18*
%TO.P,SW3,4*%
X234905959Y-130540000D03*
%TD*%
D10*
%TO.P,U5,1,SCK_1*%
%TO.N,GND*%
X211640000Y-112620000D03*
%TO.P,U5,2,BCK_2*%
%TO.N,AJBCK*%
X211640000Y-115160000D03*
%TO.P,U5,3,DIN_3*%
%TO.N,AJDIN*%
X211640000Y-117700000D03*
%TO.P,U5,4,LCK_4*%
%TO.N,AJLCK*%
X211640000Y-120240000D03*
%TO.P,U5,5,GND_5*%
%TO.N,GND*%
X211640000Y-122780000D03*
%TO.P,U5,6,VIN_6*%
%TO.N,VBUS*%
X211640000Y-125320000D03*
%TO.P,U5,7,FLT_7*%
%TO.N,GND*%
X218840000Y-111700000D03*
%TO.P,U5,8,DEMP_8*%
X221380000Y-111700000D03*
%TO.P,U5,9,XSMT_9*%
%TO.N,+3V3*%
X223920000Y-111700000D03*
%TO.P,U5,10,FMT_10*%
%TO.N,GND*%
X226460000Y-111700000D03*
%TO.P,U5,11,A3V3_11*%
%TO.N,+3V3*%
X229000000Y-111700000D03*
%TO.P,U5,12,AGND_12*%
%TO.N,GND*%
X231540000Y-111700000D03*
%TO.P,U5,13,ROUT_13*%
%TO.N,unconnected-(U5-ROUT-Pad13)*%
X234080000Y-111700000D03*
%TO.P,U5,14,AGND_14*%
%TO.N,GND*%
X236620000Y-111700000D03*
%TO.P,U5,15,LOUT_15*%
%TO.N,unconnected-(U5-LOUT-Pad15)*%
X239160000Y-111700000D03*
%TD*%
%TO.P,R7,1*%
%TO.N,Net-(Q1-D)*%
X178000000Y-101500000D03*
%TO.P,R7,2*%
%TO.N,VBUS*%
X170380000Y-101500000D03*
%TD*%
D19*
%TO.P,JP1,1,A_1*%
%TO.N,BATT-*%
X258000000Y-112000000D03*
%TO.P,JP1,2,B_2*%
%TO.N,+BATT*%
X258000000Y-114540000D03*
%TD*%
D20*
%TO.P,J2,1,DAT2_1*%
%TO.N,unconnected-(J2-DAT2-Pad1)*%
X203205000Y-124600000D03*
%TO.P,J2,2,DAT3/CD_2*%
%TO.N,DAT3*%
X202105000Y-124600000D03*
%TO.P,J2,3,CMD_3*%
%TO.N,MOSI*%
X201005000Y-124600000D03*
%TO.P,J2,4,VDD_4*%
%TO.N,+3.3V*%
X199905000Y-124600000D03*
%TO.P,J2,5,CLK_5*%
%TO.N,SCK*%
X198805000Y-124600000D03*
%TO.P,J2,6,VSS_6*%
%TO.N,GND*%
X197705000Y-124600000D03*
%TO.P,J2,7,DAT0_7*%
%TO.N,MISO*%
X196605000Y-124600000D03*
%TO.P,J2,8,DAT1_8*%
%TO.N,unconnected-(J2-DAT1-Pad8)*%
X195505000Y-124600000D03*
D21*
%TO.P,J2,SH,SHIELD_SH*%
%TO.N,unconnected-(J2-SHIELD-PadSH)_1*%
X206875000Y-127200000D03*
%TO.N,unconnected-(J2-SHIELD-PadSH)_2*%
X206875000Y-118900000D03*
%TO.N,unconnected-(J2-SHIELD-PadSH)*%
X193125000Y-127200000D03*
%TO.N,unconnected-(J2-SHIELD-PadSH)_3*%
X193125000Y-118900000D03*
%TD*%
D22*
%TO.P,SW4,*%
%TO.N,*%
X258000000Y-128100000D03*
X258000000Y-119900000D03*
D23*
%TO.P,SW4,1,A_1*%
%TO.N,unconnected-(SW4-A-Pad1)*%
X258000000Y-126000000D03*
D24*
%TO.P,SW4,2,B_2*%
%TO.N,+BATT*%
X258000000Y-124000000D03*
%TO.P,SW4,3,C_3*%
%TO.N,BATT+*%
X258000000Y-122000000D03*
%TD*%
D10*
%TO.P,R4,1*%
%TO.N,Net-(R4-Pad1)*%
X244880000Y-115200000D03*
%TO.P,R4,2*%
%TO.N,GPIO1*%
X252500000Y-115200000D03*
%TD*%
%TO.P,R10,1*%
%TO.N,Net-(Q2-D)*%
X178000000Y-105000000D03*
%TO.P,R10,2*%
%TO.N,VBUS*%
X170380000Y-105000000D03*
%TD*%
D16*
%TO.P,SW6,1,1_1*%
%TO.N,GND*%
X252855959Y-128700000D03*
%TO.P,SW6,2,2_2*%
%TO.N,Net-(R6-Pad2)*%
X248655959Y-128700000D03*
D17*
%TO.P,SW6,3*%
%TO.N,N/C*%
X247305959Y-130540000D03*
D18*
%TO.P,SW6,4*%
X254205959Y-130540000D03*
%TD*%
D10*
%TO.P,R2,1*%
%TO.N,GPIO1*%
X252500000Y-112000000D03*
%TO.P,R2,2*%
%TO.N,+3V3*%
X244880000Y-112000000D03*
%TD*%
%TO.P,R5,1*%
%TO.N,GPIO1*%
X251000000Y-126500000D03*
%TO.P,R5,2*%
%TO.N,Net-(R5-Pad2)*%
X243380000Y-126500000D03*
%TD*%
%TO.P,R9,1*%
%TO.N,+3.3V*%
X252000000Y-118500000D03*
%TO.P,R9,2*%
%TO.N,SCL*%
X244380000Y-118500000D03*
%TD*%
%TO.P,R3,1*%
%TO.N,GPIO1*%
X190500000Y-112500000D03*
%TO.P,R3,2*%
%TO.N,Net-(R3-Pad2)*%
X198120000Y-112500000D03*
%TD*%
D16*
%TO.P,SW1,1,1_1*%
%TO.N,GND*%
X214555959Y-128700000D03*
%TO.P,SW1,2,2_2*%
%TO.N,GPIO1*%
X210355959Y-128700000D03*
D17*
%TO.P,SW1,3*%
%TO.N,N/C*%
X209005959Y-130540000D03*
D18*
%TO.P,SW1,4*%
X215905959Y-130540000D03*
%TD*%
D16*
%TO.P,SW2,1,1_1*%
%TO.N,GND*%
X224055959Y-128700000D03*
%TO.P,SW2,2,2_2*%
%TO.N,Net-(R3-Pad2)*%
X219855959Y-128700000D03*
D17*
%TO.P,SW2,3*%
%TO.N,N/C*%
X218505959Y-130540000D03*
D18*
%TO.P,SW2,4*%
X225405959Y-130540000D03*
%TD*%
D10*
%TO.P,R8,1*%
%TO.N,+3.3V*%
X252310000Y-122000000D03*
%TO.P,R8,2*%
%TO.N,SDA*%
X244690000Y-122000000D03*
%TD*%
D25*
%TO.P,Q2,1,G_1*%
%TO.N,+3.3V*%
X202950000Y-111562500D03*
%TO.P,Q2,2,S_2*%
%TO.N,SCL*%
X201050000Y-111562500D03*
%TO.P,Q2,3,D_3*%
%TO.N,Net-(Q2-D)*%
X202000000Y-113437500D03*
%TD*%
D10*
%TO.P,R6,1*%
%TO.N,GPIO1*%
X178000000Y-108500000D03*
%TO.P,R6,2*%
%TO.N,Net-(R6-Pad2)*%
X170380000Y-108500000D03*
%TD*%
D16*
%TO.P,SW5,1,1_1*%
%TO.N,GND*%
X243355959Y-128700000D03*
%TO.P,SW5,2,2_2*%
%TO.N,Net-(R5-Pad2)*%
X239155959Y-128700000D03*
D17*
%TO.P,SW5,3*%
%TO.N,N/C*%
X237805959Y-130540000D03*
D18*
%TO.P,SW5,4*%
X244705959Y-130540000D03*
%TD*%
D26*
%TO.P,Q1,1,G_1*%
%TO.N,+3.3V*%
X206562500Y-111550000D03*
%TO.P,Q1,2,S_2*%
%TO.N,SDA*%
X206562500Y-113450000D03*
%TO.P,Q1,3,D_3*%
%TO.N,Net-(Q1-D)*%
X208437500Y-112500000D03*
%TD*%
D27*
%TO.N,GPIO1*%
X210000000Y-130000000D03*
%TO.N,AJBCK*%
X195653431Y-113739215D03*
%TO.N,AJLCK*%
X239750000Y-93250000D03*
%TO.N,MISO*%
X180500000Y-119802000D03*
%TO.N,+3.3V*%
X204600000Y-124471472D03*
X203000000Y-116000000D03*
%TO.N,BATT-*%
X180500000Y-123900000D03*
X254250000Y-126750000D03*
%TO.N,Net-(R3-Pad2)*%
X205000000Y-121400000D03*
%TD*%
%TO.N,Net-(Q2-D)*%
D28*
X191500000Y-99197058D02*
X202000000Y-109697058D01*
X191500000Y-97340000D02*
X191500000Y-99197058D01*
X202000000Y-109697058D02*
X202000000Y-113437500D01*
X190580000Y-96420000D02*
X191500000Y-97340000D01*
%TO.N,Net-(Q1-D)*%
X192000000Y-98500000D02*
X203500000Y-110000000D01*
X192000000Y-87890000D02*
X192000000Y-98500000D01*
X190580000Y-86470000D02*
X192000000Y-87890000D01*
%TO.N,GND*%
X193500000Y-98500000D02*
X204500000Y-109500000D01*
X193500000Y-83500000D02*
X193500000Y-98500000D01*
X191440000Y-81440000D02*
X193500000Y-83500000D01*
X190580000Y-81440000D02*
X191440000Y-81440000D01*
%TO.N,BATT+*%
X194500000Y-98000000D02*
X196000000Y-99500000D01*
X194500000Y-82500000D02*
X194500000Y-98000000D01*
X187000000Y-80000000D02*
X192000000Y-80000000D01*
X185500000Y-81500000D02*
X187000000Y-80000000D01*
X192000000Y-80000000D02*
X194500000Y-82500000D01*
X185500000Y-92000000D02*
X185500000Y-81500000D01*
X176500000Y-117000000D02*
X176500000Y-101000000D01*
X180763000Y-121263000D02*
X176500000Y-117000000D01*
X184000000Y-121263000D02*
X180763000Y-121263000D01*
X176500000Y-101000000D02*
X185500000Y-92000000D01*
%TO.N,Net-(Q1-D)*%
X188580000Y-86470000D02*
X190580000Y-86470000D01*
X186000000Y-89050000D02*
X188580000Y-86470000D01*
%TO.N,Net-(Q2-D)*%
X190580000Y-88990000D02*
X190580000Y-96420000D01*
X178000000Y-105000000D02*
X182000000Y-105000000D01*
X182000000Y-105000000D02*
X190580000Y-96420000D01*
%TO.N,GPIO1*%
X250500000Y-117200000D02*
X250500000Y-124500000D01*
X251000000Y-125000000D02*
X251000000Y-126500000D01*
X190198000Y-112198000D02*
X190500000Y-112500000D01*
X210355959Y-129644041D02*
X210355959Y-128700000D01*
X250500000Y-124500000D02*
X251000000Y-125000000D01*
X252500000Y-115200000D02*
X250500000Y-117200000D01*
X181698000Y-112198000D02*
X190198000Y-112198000D01*
X178000000Y-108500000D02*
X181698000Y-112198000D01*
X210000000Y-129055959D02*
X210355959Y-128700000D01*
X210000000Y-130000000D02*
X210000000Y-130070973D01*
X252500000Y-112000000D02*
X252500000Y-115200000D01*
X210000000Y-130000000D02*
X210355959Y-129644041D01*
%TO.N,DAT3*%
X187120000Y-125960000D02*
X188460000Y-125960000D01*
X200155000Y-127500000D02*
X202105000Y-125550000D01*
X194500000Y-129000000D02*
X196000000Y-127500000D01*
X202105000Y-125550000D02*
X202105000Y-124600000D01*
X191500000Y-129000000D02*
X194500000Y-129000000D01*
X188460000Y-125960000D02*
X191500000Y-129000000D01*
X196000000Y-127500000D02*
X200155000Y-127500000D01*
%TO.N,SDA*%
X189295000Y-117000000D02*
X187955000Y-118340000D01*
X206562500Y-113950000D02*
X203512500Y-117000000D01*
X206562500Y-113450000D02*
X206562500Y-113950000D01*
X203512500Y-117000000D02*
X189295000Y-117000000D01*
X187955000Y-118340000D02*
X187120000Y-118340000D01*
%TO.N,SCL*%
X189255000Y-114500000D02*
X187955000Y-115800000D01*
X201050000Y-111562500D02*
X201050000Y-112450000D01*
X201050000Y-112450000D02*
X199000000Y-114500000D01*
X199000000Y-114500000D02*
X189255000Y-114500000D01*
%TO.N,AJBCK*%
X195653431Y-113739215D02*
X195392646Y-114000000D01*
X195392646Y-114000000D02*
X187860000Y-114000000D01*
X187860000Y-114000000D02*
X187120000Y-113260000D01*
%TO.N,AJLCK*%
X185000000Y-81000000D02*
X185000000Y-91934315D01*
X172500000Y-106000000D02*
X171880000Y-106620000D01*
X226000000Y-79500000D02*
X186500000Y-79500000D01*
X239750000Y-93250000D02*
X226000000Y-79500000D01*
X186500000Y-79500000D02*
X185000000Y-81000000D01*
X185000000Y-91934315D02*
X172500000Y-104434315D01*
X172500000Y-104434315D02*
X172500000Y-106000000D01*
X171880000Y-106620000D02*
X171880000Y-113260000D01*
%TO.N,SCK*%
X178500000Y-120000000D02*
X178500000Y-124000000D01*
X198387843Y-125967157D02*
X198805000Y-125550000D01*
X174000000Y-117920000D02*
X176420000Y-117920000D01*
X198805000Y-125550000D02*
X198805000Y-124600000D01*
X178500000Y-124000000D02*
X181000000Y-126500000D01*
X186000000Y-122000000D02*
X191065686Y-122000000D01*
X181000000Y-126500000D02*
X184500000Y-126500000D01*
X195032843Y-125967157D02*
X198387843Y-125967157D01*
X191065686Y-122000000D02*
X195032843Y-125967157D01*
X185500000Y-122500000D02*
X186000000Y-122000000D01*
X185500000Y-125500000D02*
X185500000Y-122500000D01*
X171880000Y-115800000D02*
X174000000Y-117920000D01*
X198650000Y-124600000D02*
X198650000Y-123950000D01*
X176420000Y-117920000D02*
X178500000Y-120000000D01*
X184500000Y-126500000D02*
X185500000Y-125500000D01*
%TO.N,MISO*%
X194500000Y-123022500D02*
X195977500Y-123022500D01*
X196605000Y-123650000D02*
X196605000Y-124600000D01*
X190977500Y-119500000D02*
X194500000Y-123022500D01*
X195977500Y-123022500D02*
X196605000Y-123650000D01*
X180500000Y-119802000D02*
X180802000Y-119500000D01*
X180802000Y-119500000D02*
X190977500Y-119500000D01*
%TO.N,MOSI*%
X201005000Y-123984314D02*
X201005000Y-124600000D01*
X200268628Y-130100000D02*
X204000000Y-126368628D01*
X172025000Y-120880000D02*
X181845000Y-130700000D01*
X181845000Y-130700000D02*
X191668630Y-130700000D01*
X201989314Y-123000000D02*
X201005000Y-123984314D01*
X192268630Y-130100000D02*
X200268628Y-130100000D01*
X204000000Y-126368628D02*
X204000000Y-123057843D01*
X203942157Y-123000000D02*
X201989314Y-123000000D01*
X204000000Y-123057843D02*
X203942157Y-123000000D01*
X191668630Y-130700000D02*
X192268630Y-130100000D01*
%TO.N,+3.3V*%
X252000000Y-118500000D02*
X252000000Y-120000000D01*
X202950000Y-115950000D02*
X203000000Y-116000000D01*
X177302500Y-128697500D02*
X179705000Y-131100000D01*
X204600000Y-124471472D02*
X205471472Y-124471472D01*
X205500000Y-124500000D02*
X205500000Y-123550000D01*
X199905000Y-123650000D02*
X199905000Y-124600000D01*
X205471472Y-124471472D02*
X205500000Y-124500000D01*
X202950000Y-111562500D02*
X202950000Y-115950000D01*
X192434315Y-130500000D02*
X200434314Y-130500000D01*
X206062500Y-112050000D02*
X206562500Y-111550000D01*
X172025000Y-123420000D02*
X177302500Y-128697500D01*
X191834314Y-131100000D02*
X192434315Y-130500000D01*
X205500000Y-123550000D02*
X204975000Y-123025000D01*
X204975000Y-123025000D02*
X204450000Y-122500000D01*
X179705000Y-131100000D02*
X191834314Y-131100000D01*
X202950000Y-111562500D02*
X203437500Y-112050000D01*
X204450000Y-122500000D02*
X201055000Y-122500000D01*
X201055000Y-122500000D02*
X199905000Y-123650000D01*
X200434314Y-130500000D02*
X205500000Y-125434314D01*
X203437500Y-112050000D02*
X206062500Y-112050000D01*
X252000000Y-120000000D02*
X252310000Y-120310000D01*
X252310000Y-120310000D02*
X252310000Y-122000000D01*
X205500000Y-125434314D02*
X205500000Y-124500000D01*
%TO.N,GND*%
X229750000Y-131000000D02*
X231000000Y-131000000D01*
X243355959Y-128700000D02*
X241800000Y-128700000D01*
X204000000Y-121000000D02*
X204000000Y-121484314D01*
X243355959Y-128700000D02*
X243355959Y-128644041D01*
X210015686Y-127500000D02*
X213355959Y-127500000D01*
X231000000Y-131000000D02*
X231500000Y-130500000D01*
X213000000Y-121420000D02*
X213000000Y-113980000D01*
X243355959Y-128700000D02*
X245800000Y-128700000D01*
X223080000Y-110000000D02*
X221380000Y-111700000D01*
X220305846Y-131031438D02*
X217974408Y-128700000D01*
X234920000Y-110000000D02*
X233240000Y-110000000D01*
X239574408Y-131000000D02*
X237274408Y-128700000D01*
X250700000Y-128700000D02*
X252855959Y-128700000D01*
X204000000Y-121484314D02*
X208507843Y-125992157D01*
X218840000Y-111700000D02*
X221380000Y-111700000D01*
X222000000Y-130500000D02*
X221468562Y-131031438D01*
X241500000Y-130000000D02*
X240500000Y-131000000D01*
X204000000Y-121484314D02*
X199870686Y-121484314D01*
X210500000Y-111480000D02*
X210480000Y-111480000D01*
X222000000Y-129000000D02*
X222000000Y-130500000D01*
X208507843Y-125992157D02*
X210015686Y-127500000D01*
X217974408Y-128700000D02*
X214555959Y-128700000D01*
X245800000Y-128700000D02*
X247000000Y-127500000D01*
X229115869Y-130341461D02*
X229115869Y-130365869D01*
X231500000Y-129000000D02*
X231800000Y-128700000D01*
X197705000Y-123650000D02*
X197705000Y-124600000D01*
X231500000Y-130500000D02*
X231500000Y-129000000D01*
X240500000Y-131000000D02*
X239574408Y-131000000D01*
X213000000Y-113980000D02*
X211640000Y-112620000D01*
X177420000Y-131500000D02*
X171880000Y-125960000D01*
X211640000Y-112620000D02*
X210500000Y-111480000D01*
X199870686Y-121484314D02*
X197705000Y-123650000D01*
X226460000Y-111700000D02*
X224760000Y-110000000D01*
X211640000Y-122780000D02*
X213000000Y-121420000D01*
X247000000Y-127500000D02*
X249500000Y-127500000D01*
X228180065Y-129430065D02*
X228204473Y-129430065D01*
X233240000Y-110000000D02*
X231540000Y-111700000D01*
X227450000Y-128700000D02*
X228180065Y-129430065D01*
X208500000Y-109500000D02*
X204500000Y-109500000D01*
X210480000Y-111480000D02*
X208500000Y-109500000D01*
X205000000Y-120500000D02*
X204500000Y-120500000D01*
X224055959Y-128700000D02*
X227450000Y-128700000D01*
X236620000Y-111700000D02*
X234920000Y-110000000D01*
X249500000Y-127500000D02*
X250700000Y-128700000D01*
X222300000Y-128700000D02*
X222000000Y-129000000D01*
X211640000Y-112620000D02*
X217920000Y-112620000D01*
X204500000Y-120500000D02*
X204000000Y-121000000D01*
X221468562Y-131031438D02*
X220305846Y-131031438D01*
X224055959Y-128700000D02*
X222300000Y-128700000D01*
X229840000Y-110000000D02*
X228160000Y-110000000D01*
X241500000Y-129000000D02*
X241500000Y-130000000D01*
X209757843Y-127242157D02*
X205500000Y-131500000D01*
X213355959Y-127500000D02*
X214555959Y-128700000D01*
X231540000Y-111700000D02*
X229840000Y-110000000D01*
X207280000Y-122780000D02*
X205000000Y-120500000D01*
X231800000Y-128700000D02*
X233555959Y-128700000D01*
X205500000Y-131500000D02*
X177420000Y-131500000D01*
X229115869Y-130365869D02*
X229750000Y-131000000D01*
X228160000Y-110000000D02*
X226460000Y-111700000D01*
X228204473Y-129430065D02*
X229115869Y-130341461D01*
X224760000Y-110000000D02*
X223080000Y-110000000D01*
X237274408Y-128700000D02*
X233555959Y-128700000D01*
X217920000Y-112620000D02*
X218840000Y-111700000D01*
X241800000Y-128700000D02*
X241500000Y-129000000D01*
X211640000Y-122780000D02*
X207280000Y-122780000D01*
X208507843Y-125992157D02*
X209757843Y-127242157D01*
%TO.N,VBUS*%
X170380000Y-101500000D02*
X170380000Y-105000000D01*
%TO.N,BATT-*%
X256000000Y-114474314D02*
X256000000Y-112500000D01*
X254899999Y-124100001D02*
X254899999Y-117468630D01*
X254899999Y-117468630D02*
X255600000Y-116768628D01*
X256000000Y-112500000D02*
X256500000Y-112000000D01*
X181232000Y-123168000D02*
X184145000Y-123168000D01*
X254500000Y-126500000D02*
X254500000Y-124500000D01*
X255600000Y-114874314D02*
X256000000Y-114474314D01*
X254500000Y-124500000D02*
X254899999Y-124100001D01*
X254250000Y-126750000D02*
X254500000Y-126500000D01*
X256500000Y-112000000D02*
X258000000Y-112000000D01*
X255600000Y-116768628D02*
X255600000Y-114874314D01*
X180500000Y-123900000D02*
X181232000Y-123168000D01*
%TO.N,BATT+*%
X258500000Y-116500000D02*
X257000000Y-116500000D01*
X260000000Y-98065686D02*
X260000000Y-115000000D01*
X257000000Y-116500000D02*
X255699999Y-117800001D01*
X196000000Y-99500000D02*
X235000000Y-99500000D01*
X260000000Y-115000000D02*
X258500000Y-116500000D01*
X255699999Y-121634313D02*
X256065686Y-122000000D01*
X253834314Y-91900000D02*
X260000000Y-98065686D01*
X242600000Y-91900000D02*
X253834314Y-91900000D01*
X255699999Y-117800001D02*
X255699999Y-121634313D01*
X256065686Y-122000000D02*
X258000000Y-122000000D01*
X235000000Y-99500000D02*
X242600000Y-91900000D01*
%TO.N,Net-(R4-Pad1)*%
X234355960Y-123700000D02*
X229355959Y-128700000D01*
X244880000Y-115200000D02*
X247200000Y-117520000D01*
X247200000Y-117520000D02*
X247200000Y-122234314D01*
X247200000Y-122234314D02*
X245734314Y-123700000D01*
X245734314Y-123700000D02*
X234355960Y-123700000D01*
%TO.N,+3V3*%
X225220000Y-113000000D02*
X227700000Y-113000000D01*
X229000000Y-111700000D02*
X230300000Y-113000000D01*
X227700000Y-113000000D02*
X229000000Y-111700000D01*
X230300000Y-113000000D02*
X243880000Y-113000000D01*
X223920000Y-111700000D02*
X225220000Y-113000000D01*
X243880000Y-113000000D02*
X244880000Y-112000000D01*
%TO.N,Net-(Q1-D)*%
X186000000Y-93500000D02*
X178000000Y-101500000D01*
X207875000Y-110000000D02*
X208437500Y-110562500D01*
X208437500Y-110562500D02*
X208437500Y-112500000D01*
X203500000Y-110000000D02*
X207875000Y-110000000D01*
X186000000Y-89050000D02*
X186000000Y-93500000D01*
%TO.N,+BATT*%
X255299999Y-123299999D02*
X255299999Y-117634316D01*
X256000000Y-124000000D02*
X255299999Y-123299999D01*
X256000000Y-115040000D02*
X256500000Y-114540000D01*
X258000000Y-124000000D02*
X256000000Y-124000000D01*
X256000000Y-116934314D02*
X256000000Y-115040000D01*
X255299999Y-117634316D02*
X256000000Y-116934314D01*
X256500000Y-114540000D02*
X258000000Y-114540000D01*
%TO.N,Net-(R6-Pad2)*%
X184500000Y-91868630D02*
X172100000Y-104268629D01*
X186500000Y-78500000D02*
X184500000Y-80500000D01*
X251150113Y-131650113D02*
X258349887Y-131650113D01*
X171480000Y-106454314D02*
X171480000Y-107400000D01*
X172100000Y-104268629D02*
X172100000Y-105834314D01*
X260400000Y-129600000D02*
X260400000Y-97900000D01*
X249700000Y-128700000D02*
X250500000Y-129500000D01*
X248655959Y-128700000D02*
X249700000Y-128700000D01*
X184500000Y-80500000D02*
X184500000Y-91868630D01*
X250500000Y-131000000D02*
X251150113Y-131650113D01*
X172100000Y-105834314D02*
X171480000Y-106454314D01*
X171480000Y-107400000D02*
X170380000Y-108500000D01*
X250500000Y-129500000D02*
X250500000Y-131000000D01*
X258349887Y-131650113D02*
X260400000Y-129600000D01*
X241000000Y-78500000D02*
X186500000Y-78500000D01*
X260400000Y-97900000D02*
X241000000Y-78500000D01*
%TO.N,Net-(R5-Pad2)*%
X239155959Y-128700000D02*
X241180000Y-128700000D01*
X241180000Y-128700000D02*
X243380000Y-126500000D01*
%TO.N,Net-(R3-Pad2)*%
X205000000Y-121500000D02*
X210500000Y-127000000D01*
X210500000Y-127000000D02*
X218155959Y-127000000D01*
X218155959Y-127000000D02*
X219855959Y-128700000D01*
X205000000Y-121400000D02*
X205000000Y-121500000D01*
%TD*%
M02*
