%TF.GenerationSoftware,KiCad,Pcbnew,10.0.1*%
%TF.CreationDate,2026-06-23T11:35:45-04:00*%
%TF.ProjectId,Walkman-in-2026,57616c6b-6d61-46e2-9d69-6e2d32303236,rev?*%
%TF.SameCoordinates,Original*%
%TF.FileFunction,Soldermask,Top*%
%TF.FilePolarity,Negative*%
%FSLAX46Y46*%
G04 Gerber Fmt 4.6, Leading zero omitted, Abs format (unit mm)*
G04 Created by KiCad (PCBNEW 10.0.1) date 2026-06-23 11:35:45*
%MOMM*%
%LPD*%
G01*
G04 APERTURE LIST*
G04 Aperture macros list*
%AMRoundRect*
0 Rectangle with rounded corners*
0 $1 Rounding radius*
0 $2 $3 $4 $5 $6 $7 $8 $9 X,Y pos of 4 corners*
0 Add a 4 corners polygon primitive as box body*
4,1,4,$2,$3,$4,$5,$6,$7,$8,$9,$2,$3,0*
0 Add four circle primitives for the rounded corners*
1,1,$1+$1,$2,$3*
1,1,$1+$1,$4,$5*
1,1,$1+$1,$6,$7*
1,1,$1+$1,$8,$9*
0 Add four rect primitives between the rounded corners*
20,1,$1+$1,$2,$3,$4,$5,0*
20,1,$1+$1,$4,$5,$6,$7,0*
20,1,$1+$1,$6,$7,$8,$9,0*
20,1,$1+$1,$8,$9,$2,$3,0*%
%AMFreePoly0*
4,1,19,0.785442,0.785442,0.800087,0.750087,0.800087,0.050089,0.800062,0.050028,0.800062,-0.749935,0.785417,-0.785290,0.750062,-0.799935,-0.049936,-0.799935,-0.085291,-0.785290,-0.099936,-0.749935,-0.099936,0.000089,-0.749910,0.000089,-0.785265,0.014734,-0.799910,0.050089,-0.799910,0.750087,-0.785265,0.785442,-0.749910,0.800087,0.750087,0.800087,0.785442,0.785442,0.785442,0.785442,
$1*%
%AMFreePoly1*
4,1,22,0.050101,0.800087,0.750011,0.800087,0.785366,0.785442,0.800011,0.750087,0.800011,0.050089,0.785366,0.014734,0.750011,0.000089,0.100038,0.000089,0.100038,-0.749884,0.085393,-0.785239,0.050038,-0.799884,-0.749960,-0.799884,-0.785315,-0.785239,-0.799960,-0.749884,-0.799960,0.050026,-0.799986,0.050089,-0.799986,0.750087,-0.785341,0.785442,-0.785315,0.785468,-0.749960,0.800113,
0.050038,0.800113,0.050101,0.800087,0.050101,0.800087,$1*%
G04 Aperture macros list end*
%ADD10C,1.600000*%
%ADD11C,3.200000*%
%ADD12RoundRect,0.152400X-1.063600X-0.609600X1.063600X-0.609600X1.063600X0.609600X-1.063600X0.609600X0*%
%ADD13C,1.524000*%
%ADD14RoundRect,0.152400X1.063600X0.609600X-1.063600X0.609600X-1.063600X-0.609600X1.063600X-0.609600X0*%
%ADD15RoundRect,0.254000X-0.762000X-0.254000X0.762000X-0.254000X0.762000X0.254000X-0.762000X0.254000X0*%
%ADD16C,0.900000*%
%ADD17R,1.200000X1.200000*%
%ADD18FreePoly0,180.000000*%
%ADD19FreePoly1,180.000000*%
%ADD20C,1.400000*%
%ADD21R,0.800000X1.500000*%
%ADD22RoundRect,0.362500X0.362500X0.637500X-0.362500X0.637500X-0.362500X-0.637500X0.362500X-0.637500X0*%
%ADD23O,3.500000X2.200000*%
%ADD24R,2.500000X1.500000*%
%ADD25O,2.500000X1.500000*%
%ADD26RoundRect,0.150000X-0.150000X0.587500X-0.150000X-0.587500X0.150000X-0.587500X0.150000X0.587500X0*%
%ADD27RoundRect,0.150000X-0.587500X-0.150000X0.587500X-0.150000X0.587500X0.150000X-0.587500X0.150000X0*%
G04 APERTURE END LIST*
D10*
%TO.C,U2*%
X190580000Y-88990000D03*
X190580000Y-86470000D03*
X190580000Y-83950000D03*
X190580000Y-81440000D03*
D11*
X183000000Y-76500000D03*
X183000000Y-107500000D03*
X258000000Y-76500000D03*
X258000000Y-107500000D03*
%TD*%
D12*
%TO.C,U1*%
X187955000Y-128500000D03*
D13*
X187120000Y-128500000D03*
D12*
X187955000Y-125960000D03*
D13*
X187120000Y-125960000D03*
D12*
X187955000Y-123420000D03*
D13*
X187120000Y-123420000D03*
D12*
X187955000Y-120880000D03*
D13*
X187120000Y-120880000D03*
D12*
X187955000Y-118340000D03*
D13*
X187120000Y-118340000D03*
D12*
X187955000Y-115800000D03*
D13*
X187120000Y-115800000D03*
D12*
X187955000Y-113260000D03*
D13*
X187120000Y-113260000D03*
X171880000Y-113260000D03*
D14*
X171045000Y-113260000D03*
D13*
X171880000Y-115800000D03*
D14*
X171045000Y-115800000D03*
D13*
X171880000Y-118340000D03*
D14*
X171045000Y-118340000D03*
D13*
X171880000Y-120880000D03*
D14*
X171045000Y-120880000D03*
D13*
X171880000Y-123420000D03*
D14*
X171045000Y-123420000D03*
D13*
X171880000Y-125960000D03*
D14*
X171045000Y-125960000D03*
D13*
X171880000Y-128500000D03*
D14*
X171045000Y-128500000D03*
D15*
X184000000Y-123168000D03*
X184000000Y-121263000D03*
%TD*%
D16*
%TO.C,SW3*%
X232605959Y-130000000D03*
X230305959Y-130000000D03*
D17*
X233555959Y-128700000D03*
X229355959Y-128700000D03*
D18*
X228005959Y-130540000D03*
D19*
X234905959Y-130540000D03*
%TD*%
D10*
%TO.C,U5*%
X211640000Y-112620000D03*
X211640000Y-115160000D03*
X211640000Y-117700000D03*
X211640000Y-120240000D03*
X211640000Y-122780000D03*
X211640000Y-125320000D03*
X218840000Y-111700000D03*
X221380000Y-111700000D03*
X223920000Y-111700000D03*
X226460000Y-111700000D03*
X229000000Y-111700000D03*
X231540000Y-111700000D03*
X234080000Y-111700000D03*
X236620000Y-111700000D03*
X239160000Y-111700000D03*
%TD*%
%TO.C,R7*%
X178000000Y-101500000D03*
X170380000Y-101500000D03*
%TD*%
D20*
%TO.C,JP1*%
X258000000Y-112000000D03*
X258000000Y-114540000D03*
%TD*%
D21*
%TO.C,J2*%
X203205000Y-124600000D03*
X202105000Y-124600000D03*
X201005000Y-124600000D03*
X199905000Y-124600000D03*
X198805000Y-124600000D03*
X197705000Y-124600000D03*
X196605000Y-124600000D03*
X195505000Y-124600000D03*
D22*
X206875000Y-127200000D03*
X206875000Y-118900000D03*
X193125000Y-127200000D03*
X193125000Y-118900000D03*
%TD*%
D23*
%TO.C,SW4*%
X258000000Y-128100000D03*
X258000000Y-119900000D03*
D24*
X258000000Y-126000000D03*
D25*
X258000000Y-124000000D03*
X258000000Y-122000000D03*
%TD*%
D10*
%TO.C,R4*%
X244880000Y-115200000D03*
X252500000Y-115200000D03*
%TD*%
%TO.C,R10*%
X178000000Y-105000000D03*
X170380000Y-105000000D03*
%TD*%
D16*
%TO.C,SW6*%
X251905959Y-130000000D03*
X249605959Y-130000000D03*
D17*
X252855959Y-128700000D03*
X248655959Y-128700000D03*
D18*
X247305959Y-130540000D03*
D19*
X254205959Y-130540000D03*
%TD*%
D10*
%TO.C,R2*%
X252500000Y-112000000D03*
X244880000Y-112000000D03*
%TD*%
%TO.C,R5*%
X251000000Y-126500000D03*
X243380000Y-126500000D03*
%TD*%
%TO.C,R9*%
X252000000Y-118500000D03*
X244380000Y-118500000D03*
%TD*%
%TO.C,R3*%
X190500000Y-112500000D03*
X198120000Y-112500000D03*
%TD*%
D16*
%TO.C,SW1*%
X213605959Y-130000000D03*
X211305959Y-130000000D03*
D17*
X214555959Y-128700000D03*
X210355959Y-128700000D03*
D18*
X209005959Y-130540000D03*
D19*
X215905959Y-130540000D03*
%TD*%
D16*
%TO.C,SW2*%
X223105959Y-130000000D03*
X220805959Y-130000000D03*
D17*
X224055959Y-128700000D03*
X219855959Y-128700000D03*
D18*
X218505959Y-130540000D03*
D19*
X225405959Y-130540000D03*
%TD*%
D10*
%TO.C,R8*%
X252310000Y-122000000D03*
X244690000Y-122000000D03*
%TD*%
D26*
%TO.C,Q2*%
X202950000Y-111562500D03*
X201050000Y-111562500D03*
X202000000Y-113437500D03*
%TD*%
D10*
%TO.C,R6*%
X178000000Y-108500000D03*
X170380000Y-108500000D03*
%TD*%
D16*
%TO.C,SW5*%
X242405959Y-130000000D03*
X240105959Y-130000000D03*
D17*
X243355959Y-128700000D03*
X239155959Y-128700000D03*
D18*
X237805959Y-130540000D03*
D19*
X244705959Y-130540000D03*
%TD*%
D27*
%TO.C,Q1*%
X206562500Y-111550000D03*
X206562500Y-113450000D03*
X208437500Y-112500000D03*
%TD*%
M02*
