M48
; DRILL file KiCad 10.0.1 date 2026-05-05T23:12:36
; FORMAT={-:-/ absolute / metric / decimal}
; #@! TF.CreationDate,2026-05-05T23:12:36-04:00
; #@! TF.GenerationSoftware,Kicad,Pcbnew,10.0.1
; #@! TF.FileFunction,Plated,1,2,PTH
FMAT,2
METRIC
; #@! TA.AperFunction,Plated,PTH,ViaDrill
T1C0.300
; #@! TA.AperFunction,Plated,PTH,ComponentDrill
T2C0.600
; #@! TA.AperFunction,Plated,PTH,ComponentDrill
T3C0.800
; #@! TA.AperFunction,Plated,PTH,ComponentDrill
T4C0.889
; #@! TA.AperFunction,Plated,PTH,ComponentDrill
T5C1.000
; #@! TA.AperFunction,Plated,PTH,ComponentDrill
T6C1.000
; #@! TA.AperFunction,Plated,PTH,ComponentDrill
T7C1.100
; #@! TA.AperFunction,Plated,PTH,ComponentDrill
T8C1.500
; #@! TA.AperFunction,Plated,PTH,ComponentDrill
T9C2.500
%
G90
G05
T1
X164.0Y-109.0
X165.0Y-96.5
X167.0Y-107.5
X167.124Y-116.098
X177.5Y-101.0
X178.5Y-103.0
X181.173Y-96.471
X184.5Y-90.0
X184.511Y-92.425
X185.0Y-96.0
X188.95Y-96.6
X189.0Y-98.0
X191.0Y-89.5
X194.0Y-90.475
X194.0Y-95.0
X194.9Y-97.0
X195.5Y-92.5
X196.5Y-89.5
X200.5Y-90.5
X201.5Y-90.5
X214.0Y-93.0
T2
X164.0Y-104.0
X166.0Y-104.0
X167.5Y-98.5
X169.5Y-98.5
X171.0Y-104.0
X173.0Y-104.0
X174.0Y-98.5
X176.0Y-98.5
T3
X163.5Y-117.88
X163.5Y-125.5
X163.5Y-127.88
X163.5Y-135.5
X167.0Y-117.88
X167.0Y-125.5
X168.0Y-128.0
X168.0Y-135.62
X170.69Y-112.5
X170.88Y-115.92
X170.88Y-118.46
X170.88Y-121.0
X170.88Y-123.54
X170.88Y-126.08
X170.88Y-128.62
X170.88Y-131.16
X170.88Y-133.7
X171.0Y-108.5
X178.31Y-112.5
X178.5Y-115.92
X178.5Y-118.46
X178.5Y-121.0
X178.5Y-123.54
X178.5Y-126.08
X178.5Y-128.62
X178.5Y-131.16
X178.5Y-133.7
X178.62Y-108.5
X197.0Y-94.0
X197.0Y-96.5
X201.5Y-94.0
X201.5Y-96.5
X206.0Y-94.0
X206.0Y-96.5
X211.0Y-94.0
X211.0Y-96.5
X216.0Y-94.25
X216.0Y-96.75
X219.5Y-87.88
X219.5Y-95.5
X225.5Y-87.69
X225.5Y-95.31
X231.0Y-86.0
X231.0Y-93.62
X235.0Y-86.19
X235.0Y-93.81
X239.0Y-86.0
X239.0Y-93.62
X243.0Y-86.19
X243.0Y-93.81
X246.5Y-86.0
X246.5Y-93.62
T4
X165.8Y-77.88
X165.8Y-93.12
X168.34Y-77.88
X168.34Y-93.12
X170.88Y-77.88
X170.88Y-93.12
X173.42Y-77.88
X173.42Y-93.12
X175.96Y-77.88
X175.96Y-93.12
X178.5Y-77.88
X178.5Y-93.12
X181.04Y-77.88
X181.04Y-93.12
T5
X188.56Y-101.5
X191.1Y-101.5
X193.64Y-101.5
X196.18Y-101.5
X198.72Y-101.5
X201.26Y-101.5
X203.8Y-101.5
X206.34Y-101.5
X208.88Y-101.5
X211.42Y-101.5
X213.96Y-101.5
X216.5Y-101.5
X219.04Y-101.5
X221.58Y-101.5
X224.12Y-101.5
X226.66Y-101.5
T6
X254.0Y-90.5
X254.0Y-95.0
T7
X217.75Y-76.5
X217.75Y-83.0
X222.25Y-76.5
X222.25Y-83.0
X226.3Y-76.5
X226.3Y-83.0
X230.8Y-76.5
X230.8Y-83.0
X234.85Y-76.5
X234.85Y-83.0
X239.35Y-76.5
X239.35Y-83.0
X243.4Y-76.5
X243.4Y-83.0
X247.9Y-76.5
X247.9Y-83.0
X251.95Y-76.5
X251.95Y-83.0
X256.45Y-76.5
X256.45Y-83.0
T8
X251.5Y-89.25
X251.5Y-96.25
T6
G00X204.0Y-82.7
M15
G01X204.0Y-83.7
M16
G05
G00X209.0Y-79.7
M15
G01X208.0Y-79.7
M16
G05
G00X213.5Y-87.5
M15
G01X213.5Y-88.5
M16
G05
T9
G00X183.06Y-101.438
M15
G01X183.06Y-101.562
M16
G05
G00X183.06Y-132.438
M15
G01X183.06Y-132.562
M16
G05
G00X258.06Y-101.438
M15
G01X258.06Y-101.562
M16
G05
G00X258.06Y-132.438
M15
G01X258.06Y-132.562
M16
G05
M30
