%TF.GenerationSoftware,KiCad,Pcbnew,10.0.1*%
%TF.CreationDate,2026-06-23T11:35:45-04:00*%
%TF.ProjectId,Walkman-in-2026,57616c6b-6d61-46e2-9d69-6e2d32303236,rev?*%
%TF.SameCoordinates,Original*%
%TF.FileFunction,Paste,Top*%
%TF.FilePolarity,Positive*%
%FSLAX46Y46*%
G04 Gerber Fmt 4.6, Leading zero omitted, Abs format (unit mm)*
G04 Created by KiCad (PCBNEW 10.0.1) date 2026-06-23 11:35:45*
%MOMM*%
%LPD*%
G01*
G04 APERTURE LIST*
G04 Aperture macros list*
%AMRoundRect*
0 Rectangle with rounded corners*
0 $1 Rounding radius*
0 $2 $3 $4 $5 $6 $7 $8 $9 X,Y pos of 4 corners*
0 Add a 4 corners polygon primitive as box body*
4,1,4,$2,$3,$4,$5,$6,$7,$8,$9,$2,$3,0*
0 Add four circle primitives for the rounded corners*
1,1,$1+$1,$2,$3*
1,1,$1+$1,$4,$5*
1,1,$1+$1,$6,$7*
1,1,$1+$1,$8,$9*
0 Add four rect primitives between the rounded corners*
20,1,$1+$1,$2,$3,$4,$5,0*
20,1,$1+$1,$4,$5,$6,$7,0*
20,1,$1+$1,$6,$7,$8,$9,0*
20,1,$1+$1,$8,$9,$2,$3,0*%
%AMFreePoly0*
4,1,19,0.785442,0.785442,0.800087,0.750087,0.800087,0.050089,0.800062,0.050028,0.800062,-0.749935,0.785417,-0.785290,0.750062,-0.799935,-0.049936,-0.799935,-0.085291,-0.785290,-0.099936,-0.749935,-0.099936,0.000089,-0.749910,0.000089,-0.785265,0.014734,-0.799910,0.050089,-0.799910,0.750087,-0.785265,0.785442,-0.749910,0.800087,0.750087,0.800087,0.785442,0.785442,0.785442,0.785442,
$1*%
%AMFreePoly1*
4,1,22,0.050101,0.800087,0.750011,0.800087,0.785366,0.785442,0.800011,0.750087,0.800011,0.050089,0.785366,0.014734,0.750011,0.000089,0.100038,0.000089,0.100038,-0.749884,0.085393,-0.785239,0.050038,-0.799884,-0.749960,-0.799884,-0.785315,-0.785239,-0.799960,-0.749884,-0.799960,0.050026,-0.799986,0.050089,-0.799986,0.750087,-0.785341,0.785442,-0.785315,0.785468,-0.749960,0.800113,
0.050038,0.800113,0.050101,0.800087,0.050101,0.800087,$1*%
G04 Aperture macros list end*
%ADD10RoundRect,0.254000X-0.762000X-0.254000X0.762000X-0.254000X0.762000X0.254000X-0.762000X0.254000X0*%
%ADD11R,1.200000X1.200000*%
%ADD12FreePoly0,180.000000*%
%ADD13FreePoly1,180.000000*%
%ADD14R,0.800000X1.500000*%
%ADD15RoundRect,0.362500X0.362500X0.637500X-0.362500X0.637500X-0.362500X-0.637500X0.362500X-0.637500X0*%
%ADD16RoundRect,0.150000X-0.150000X0.587500X-0.150000X-0.587500X0.150000X-0.587500X0.150000X0.587500X0*%
%ADD17RoundRect,0.150000X-0.587500X-0.150000X0.587500X-0.150000X0.587500X0.150000X-0.587500X0.150000X0*%
G04 APERTURE END LIST*
D10*
%TO.C,U1*%
X184000000Y-123168000D03*
X184000000Y-121263000D03*
%TD*%
D11*
%TO.C,SW3*%
X233555959Y-128700000D03*
X229355959Y-128700000D03*
D12*
X228005959Y-130540000D03*
D13*
X234905959Y-130540000D03*
%TD*%
D14*
%TO.C,J2*%
X203205000Y-124600000D03*
X202105000Y-124600000D03*
X201005000Y-124600000D03*
X199905000Y-124600000D03*
X198805000Y-124600000D03*
X197705000Y-124600000D03*
X196605000Y-124600000D03*
X195505000Y-124600000D03*
D15*
X206875000Y-127200000D03*
X206875000Y-118900000D03*
X193125000Y-127200000D03*
X193125000Y-118900000D03*
%TD*%
D11*
%TO.C,SW6*%
X252855959Y-128700000D03*
X248655959Y-128700000D03*
D12*
X247305959Y-130540000D03*
D13*
X254205959Y-130540000D03*
%TD*%
D11*
%TO.C,SW1*%
X214555959Y-128700000D03*
X210355959Y-128700000D03*
D12*
X209005959Y-130540000D03*
D13*
X215905959Y-130540000D03*
%TD*%
D11*
%TO.C,SW2*%
X224055959Y-128700000D03*
X219855959Y-128700000D03*
D12*
X218505959Y-130540000D03*
D13*
X225405959Y-130540000D03*
%TD*%
D16*
%TO.C,Q2*%
X202950000Y-111562500D03*
X201050000Y-111562500D03*
X202000000Y-113437500D03*
%TD*%
D11*
%TO.C,SW5*%
X243355959Y-128700000D03*
X239155959Y-128700000D03*
D12*
X237805959Y-130540000D03*
D13*
X244705959Y-130540000D03*
%TD*%
D17*
%TO.C,Q1*%
X206562500Y-111550000D03*
X206562500Y-113450000D03*
X208437500Y-112500000D03*
%TD*%
M02*
