%TF.GenerationSoftware,KiCad,Pcbnew,10.0.1*%
%TF.CreationDate,2026-05-05T23:12:23-04:00*%
%TF.ProjectId,Walkman-in-2026,57616c6b-6d61-46e2-9d69-6e2d32303236,rev?*%
%TF.SameCoordinates,Original*%
%TF.FileFunction,Legend,Top*%
%TF.FilePolarity,Positive*%
%FSLAX46Y46*%
G04 Gerber Fmt 4.6, Leading zero omitted, Abs format (unit mm)*
G04 Created by KiCad (PCBNEW 10.0.1) date 2026-05-05 23:12:23*
%MOMM*%
%LPD*%
G01*
G04 APERTURE LIST*
%ADD10C,0.150000*%
%ADD11C,0.101600*%
%ADD12C,0.120000*%
%ADD13C,0.127000*%
%ADD14C,0.100000*%
%ADD15C,0.504000*%
%ADD16C,0.200000*%
%ADD17C,0.060000*%
G04 APERTURE END LIST*
D10*
X170833333Y-96359580D02*
X170785714Y-96407200D01*
X170785714Y-96407200D02*
X170642857Y-96454819D01*
X170642857Y-96454819D02*
X170547619Y-96454819D01*
X170547619Y-96454819D02*
X170404762Y-96407200D01*
X170404762Y-96407200D02*
X170309524Y-96311961D01*
X170309524Y-96311961D02*
X170261905Y-96216723D01*
X170261905Y-96216723D02*
X170214286Y-96026247D01*
X170214286Y-96026247D02*
X170214286Y-95883390D01*
X170214286Y-95883390D02*
X170261905Y-95692914D01*
X170261905Y-95692914D02*
X170309524Y-95597676D01*
X170309524Y-95597676D02*
X170404762Y-95502438D01*
X170404762Y-95502438D02*
X170547619Y-95454819D01*
X170547619Y-95454819D02*
X170642857Y-95454819D01*
X170642857Y-95454819D02*
X170785714Y-95502438D01*
X170785714Y-95502438D02*
X170833333Y-95550057D01*
X171309524Y-96454819D02*
X171500000Y-96454819D01*
X171500000Y-96454819D02*
X171595238Y-96407200D01*
X171595238Y-96407200D02*
X171642857Y-96359580D01*
X171642857Y-96359580D02*
X171738095Y-96216723D01*
X171738095Y-96216723D02*
X171785714Y-96026247D01*
X171785714Y-96026247D02*
X171785714Y-95645295D01*
X171785714Y-95645295D02*
X171738095Y-95550057D01*
X171738095Y-95550057D02*
X171690476Y-95502438D01*
X171690476Y-95502438D02*
X171595238Y-95454819D01*
X171595238Y-95454819D02*
X171404762Y-95454819D01*
X171404762Y-95454819D02*
X171309524Y-95502438D01*
X171309524Y-95502438D02*
X171261905Y-95550057D01*
X171261905Y-95550057D02*
X171214286Y-95645295D01*
X171214286Y-95645295D02*
X171214286Y-95883390D01*
X171214286Y-95883390D02*
X171261905Y-95978628D01*
X171261905Y-95978628D02*
X171309524Y-96026247D01*
X171309524Y-96026247D02*
X171404762Y-96073866D01*
X171404762Y-96073866D02*
X171595238Y-96073866D01*
X171595238Y-96073866D02*
X171690476Y-96026247D01*
X171690476Y-96026247D02*
X171738095Y-95978628D01*
X171738095Y-95978628D02*
X171785714Y-95883390D01*
X209359580Y-96666666D02*
X209407200Y-96714285D01*
X209407200Y-96714285D02*
X209454819Y-96857142D01*
X209454819Y-96857142D02*
X209454819Y-96952380D01*
X209454819Y-96952380D02*
X209407200Y-97095237D01*
X209407200Y-97095237D02*
X209311961Y-97190475D01*
X209311961Y-97190475D02*
X209216723Y-97238094D01*
X209216723Y-97238094D02*
X209026247Y-97285713D01*
X209026247Y-97285713D02*
X208883390Y-97285713D01*
X208883390Y-97285713D02*
X208692914Y-97238094D01*
X208692914Y-97238094D02*
X208597676Y-97190475D01*
X208597676Y-97190475D02*
X208502438Y-97095237D01*
X208502438Y-97095237D02*
X208454819Y-96952380D01*
X208454819Y-96952380D02*
X208454819Y-96857142D01*
X208454819Y-96857142D02*
X208502438Y-96714285D01*
X208502438Y-96714285D02*
X208550057Y-96666666D01*
X208454819Y-96333332D02*
X208454819Y-95666666D01*
X208454819Y-95666666D02*
X209454819Y-96095237D01*
X204359580Y-93666666D02*
X204407200Y-93714285D01*
X204407200Y-93714285D02*
X204454819Y-93857142D01*
X204454819Y-93857142D02*
X204454819Y-93952380D01*
X204454819Y-93952380D02*
X204407200Y-94095237D01*
X204407200Y-94095237D02*
X204311961Y-94190475D01*
X204311961Y-94190475D02*
X204216723Y-94238094D01*
X204216723Y-94238094D02*
X204026247Y-94285713D01*
X204026247Y-94285713D02*
X203883390Y-94285713D01*
X203883390Y-94285713D02*
X203692914Y-94238094D01*
X203692914Y-94238094D02*
X203597676Y-94190475D01*
X203597676Y-94190475D02*
X203502438Y-94095237D01*
X203502438Y-94095237D02*
X203454819Y-93952380D01*
X203454819Y-93952380D02*
X203454819Y-93857142D01*
X203454819Y-93857142D02*
X203502438Y-93714285D01*
X203502438Y-93714285D02*
X203550057Y-93666666D01*
X203454819Y-92809523D02*
X203454819Y-92999999D01*
X203454819Y-92999999D02*
X203502438Y-93095237D01*
X203502438Y-93095237D02*
X203550057Y-93142856D01*
X203550057Y-93142856D02*
X203692914Y-93238094D01*
X203692914Y-93238094D02*
X203883390Y-93285713D01*
X203883390Y-93285713D02*
X204264342Y-93285713D01*
X204264342Y-93285713D02*
X204359580Y-93238094D01*
X204359580Y-93238094D02*
X204407200Y-93190475D01*
X204407200Y-93190475D02*
X204454819Y-93095237D01*
X204454819Y-93095237D02*
X204454819Y-92904761D01*
X204454819Y-92904761D02*
X204407200Y-92809523D01*
X204407200Y-92809523D02*
X204359580Y-92761904D01*
X204359580Y-92761904D02*
X204264342Y-92714285D01*
X204264342Y-92714285D02*
X204026247Y-92714285D01*
X204026247Y-92714285D02*
X203931009Y-92761904D01*
X203931009Y-92761904D02*
X203883390Y-92809523D01*
X203883390Y-92809523D02*
X203835771Y-92904761D01*
X203835771Y-92904761D02*
X203835771Y-93095237D01*
X203835771Y-93095237D02*
X203883390Y-93190475D01*
X203883390Y-93190475D02*
X203931009Y-93238094D01*
X203931009Y-93238094D02*
X204026247Y-93285713D01*
X214359580Y-96666666D02*
X214407200Y-96714285D01*
X214407200Y-96714285D02*
X214454819Y-96857142D01*
X214454819Y-96857142D02*
X214454819Y-96952380D01*
X214454819Y-96952380D02*
X214407200Y-97095237D01*
X214407200Y-97095237D02*
X214311961Y-97190475D01*
X214311961Y-97190475D02*
X214216723Y-97238094D01*
X214216723Y-97238094D02*
X214026247Y-97285713D01*
X214026247Y-97285713D02*
X213883390Y-97285713D01*
X213883390Y-97285713D02*
X213692914Y-97238094D01*
X213692914Y-97238094D02*
X213597676Y-97190475D01*
X213597676Y-97190475D02*
X213502438Y-97095237D01*
X213502438Y-97095237D02*
X213454819Y-96952380D01*
X213454819Y-96952380D02*
X213454819Y-96857142D01*
X213454819Y-96857142D02*
X213502438Y-96714285D01*
X213502438Y-96714285D02*
X213550057Y-96666666D01*
X213883390Y-96095237D02*
X213835771Y-96190475D01*
X213835771Y-96190475D02*
X213788152Y-96238094D01*
X213788152Y-96238094D02*
X213692914Y-96285713D01*
X213692914Y-96285713D02*
X213645295Y-96285713D01*
X213645295Y-96285713D02*
X213550057Y-96238094D01*
X213550057Y-96238094D02*
X213502438Y-96190475D01*
X213502438Y-96190475D02*
X213454819Y-96095237D01*
X213454819Y-96095237D02*
X213454819Y-95904761D01*
X213454819Y-95904761D02*
X213502438Y-95809523D01*
X213502438Y-95809523D02*
X213550057Y-95761904D01*
X213550057Y-95761904D02*
X213645295Y-95714285D01*
X213645295Y-95714285D02*
X213692914Y-95714285D01*
X213692914Y-95714285D02*
X213788152Y-95761904D01*
X213788152Y-95761904D02*
X213835771Y-95809523D01*
X213835771Y-95809523D02*
X213883390Y-95904761D01*
X213883390Y-95904761D02*
X213883390Y-96095237D01*
X213883390Y-96095237D02*
X213931009Y-96190475D01*
X213931009Y-96190475D02*
X213978628Y-96238094D01*
X213978628Y-96238094D02*
X214073866Y-96285713D01*
X214073866Y-96285713D02*
X214264342Y-96285713D01*
X214264342Y-96285713D02*
X214359580Y-96238094D01*
X214359580Y-96238094D02*
X214407200Y-96190475D01*
X214407200Y-96190475D02*
X214454819Y-96095237D01*
X214454819Y-96095237D02*
X214454819Y-95904761D01*
X214454819Y-95904761D02*
X214407200Y-95809523D01*
X214407200Y-95809523D02*
X214359580Y-95761904D01*
X214359580Y-95761904D02*
X214264342Y-95714285D01*
X214264342Y-95714285D02*
X214073866Y-95714285D01*
X214073866Y-95714285D02*
X213978628Y-95761904D01*
X213978628Y-95761904D02*
X213931009Y-95809523D01*
X213931009Y-95809523D02*
X213883390Y-95904761D01*
D11*
X174029523Y-87435188D02*
X174029523Y-86787569D01*
X174029523Y-86787569D02*
X173991428Y-86711379D01*
X173991428Y-86711379D02*
X173953333Y-86673284D01*
X173953333Y-86673284D02*
X173877142Y-86635188D01*
X173877142Y-86635188D02*
X173724761Y-86635188D01*
X173724761Y-86635188D02*
X173648571Y-86673284D01*
X173648571Y-86673284D02*
X173610476Y-86711379D01*
X173610476Y-86711379D02*
X173572380Y-86787569D01*
X173572380Y-86787569D02*
X173572380Y-87435188D01*
X172772381Y-86635188D02*
X173229524Y-86635188D01*
X173000952Y-86635188D02*
X173000952Y-87435188D01*
X173000952Y-87435188D02*
X173077143Y-87320903D01*
X173077143Y-87320903D02*
X173153333Y-87244712D01*
X173153333Y-87244712D02*
X173229524Y-87206617D01*
D10*
X235666667Y-74907200D02*
X235809524Y-74954819D01*
X235809524Y-74954819D02*
X236047619Y-74954819D01*
X236047619Y-74954819D02*
X236142857Y-74907200D01*
X236142857Y-74907200D02*
X236190476Y-74859580D01*
X236190476Y-74859580D02*
X236238095Y-74764342D01*
X236238095Y-74764342D02*
X236238095Y-74669104D01*
X236238095Y-74669104D02*
X236190476Y-74573866D01*
X236190476Y-74573866D02*
X236142857Y-74526247D01*
X236142857Y-74526247D02*
X236047619Y-74478628D01*
X236047619Y-74478628D02*
X235857143Y-74431009D01*
X235857143Y-74431009D02*
X235761905Y-74383390D01*
X235761905Y-74383390D02*
X235714286Y-74335771D01*
X235714286Y-74335771D02*
X235666667Y-74240533D01*
X235666667Y-74240533D02*
X235666667Y-74145295D01*
X235666667Y-74145295D02*
X235714286Y-74050057D01*
X235714286Y-74050057D02*
X235761905Y-74002438D01*
X235761905Y-74002438D02*
X235857143Y-73954819D01*
X235857143Y-73954819D02*
X236095238Y-73954819D01*
X236095238Y-73954819D02*
X236238095Y-74002438D01*
X236571429Y-73954819D02*
X236809524Y-74954819D01*
X236809524Y-74954819D02*
X237000000Y-74240533D01*
X237000000Y-74240533D02*
X237190476Y-74954819D01*
X237190476Y-74954819D02*
X237428572Y-73954819D01*
X237714286Y-73954819D02*
X238333333Y-73954819D01*
X238333333Y-73954819D02*
X238000000Y-74335771D01*
X238000000Y-74335771D02*
X238142857Y-74335771D01*
X238142857Y-74335771D02*
X238238095Y-74383390D01*
X238238095Y-74383390D02*
X238285714Y-74431009D01*
X238285714Y-74431009D02*
X238333333Y-74526247D01*
X238333333Y-74526247D02*
X238333333Y-74764342D01*
X238333333Y-74764342D02*
X238285714Y-74859580D01*
X238285714Y-74859580D02*
X238238095Y-74907200D01*
X238238095Y-74907200D02*
X238142857Y-74954819D01*
X238142857Y-74954819D02*
X237857143Y-74954819D01*
X237857143Y-74954819D02*
X237761905Y-74907200D01*
X237761905Y-74907200D02*
X237714286Y-74859580D01*
X217584819Y-92332857D02*
X217108628Y-92666190D01*
X217584819Y-92904285D02*
X216584819Y-92904285D01*
X216584819Y-92904285D02*
X216584819Y-92523333D01*
X216584819Y-92523333D02*
X216632438Y-92428095D01*
X216632438Y-92428095D02*
X216680057Y-92380476D01*
X216680057Y-92380476D02*
X216775295Y-92332857D01*
X216775295Y-92332857D02*
X216918152Y-92332857D01*
X216918152Y-92332857D02*
X217013390Y-92380476D01*
X217013390Y-92380476D02*
X217061009Y-92428095D01*
X217061009Y-92428095D02*
X217108628Y-92523333D01*
X217108628Y-92523333D02*
X217108628Y-92904285D01*
X217584819Y-91380476D02*
X217584819Y-91951904D01*
X217584819Y-91666190D02*
X216584819Y-91666190D01*
X216584819Y-91666190D02*
X216727676Y-91761428D01*
X216727676Y-91761428D02*
X216822914Y-91856666D01*
X216822914Y-91856666D02*
X216870533Y-91951904D01*
X216680057Y-90999523D02*
X216632438Y-90951904D01*
X216632438Y-90951904D02*
X216584819Y-90856666D01*
X216584819Y-90856666D02*
X216584819Y-90618571D01*
X216584819Y-90618571D02*
X216632438Y-90523333D01*
X216632438Y-90523333D02*
X216680057Y-90475714D01*
X216680057Y-90475714D02*
X216775295Y-90428095D01*
X216775295Y-90428095D02*
X216870533Y-90428095D01*
X216870533Y-90428095D02*
X217013390Y-90475714D01*
X217013390Y-90475714D02*
X217584819Y-91047142D01*
X217584819Y-91047142D02*
X217584819Y-90428095D01*
X163454819Y-123666666D02*
X162978628Y-123999999D01*
X163454819Y-124238094D02*
X162454819Y-124238094D01*
X162454819Y-124238094D02*
X162454819Y-123857142D01*
X162454819Y-123857142D02*
X162502438Y-123761904D01*
X162502438Y-123761904D02*
X162550057Y-123714285D01*
X162550057Y-123714285D02*
X162645295Y-123666666D01*
X162645295Y-123666666D02*
X162788152Y-123666666D01*
X162788152Y-123666666D02*
X162883390Y-123714285D01*
X162883390Y-123714285D02*
X162931009Y-123761904D01*
X162931009Y-123761904D02*
X162978628Y-123857142D01*
X162978628Y-123857142D02*
X162978628Y-124238094D01*
X162454819Y-123333332D02*
X162454819Y-122666666D01*
X162454819Y-122666666D02*
X163454819Y-123095237D01*
X171333333Y-100859580D02*
X171285714Y-100907200D01*
X171285714Y-100907200D02*
X171142857Y-100954819D01*
X171142857Y-100954819D02*
X171047619Y-100954819D01*
X171047619Y-100954819D02*
X170904762Y-100907200D01*
X170904762Y-100907200D02*
X170809524Y-100811961D01*
X170809524Y-100811961D02*
X170761905Y-100716723D01*
X170761905Y-100716723D02*
X170714286Y-100526247D01*
X170714286Y-100526247D02*
X170714286Y-100383390D01*
X170714286Y-100383390D02*
X170761905Y-100192914D01*
X170761905Y-100192914D02*
X170809524Y-100097676D01*
X170809524Y-100097676D02*
X170904762Y-100002438D01*
X170904762Y-100002438D02*
X171047619Y-99954819D01*
X171047619Y-99954819D02*
X171142857Y-99954819D01*
X171142857Y-99954819D02*
X171285714Y-100002438D01*
X171285714Y-100002438D02*
X171333333Y-100050057D01*
X172238095Y-99954819D02*
X171761905Y-99954819D01*
X171761905Y-99954819D02*
X171714286Y-100431009D01*
X171714286Y-100431009D02*
X171761905Y-100383390D01*
X171761905Y-100383390D02*
X171857143Y-100335771D01*
X171857143Y-100335771D02*
X172095238Y-100335771D01*
X172095238Y-100335771D02*
X172190476Y-100383390D01*
X172190476Y-100383390D02*
X172238095Y-100431009D01*
X172238095Y-100431009D02*
X172285714Y-100526247D01*
X172285714Y-100526247D02*
X172285714Y-100764342D01*
X172285714Y-100764342D02*
X172238095Y-100859580D01*
X172238095Y-100859580D02*
X172190476Y-100907200D01*
X172190476Y-100907200D02*
X172095238Y-100954819D01*
X172095238Y-100954819D02*
X171857143Y-100954819D01*
X171857143Y-100954819D02*
X171761905Y-100907200D01*
X171761905Y-100907200D02*
X171714286Y-100859580D01*
X199809580Y-96166666D02*
X199857200Y-96214285D01*
X199857200Y-96214285D02*
X199904819Y-96357142D01*
X199904819Y-96357142D02*
X199904819Y-96452380D01*
X199904819Y-96452380D02*
X199857200Y-96595237D01*
X199857200Y-96595237D02*
X199761961Y-96690475D01*
X199761961Y-96690475D02*
X199666723Y-96738094D01*
X199666723Y-96738094D02*
X199476247Y-96785713D01*
X199476247Y-96785713D02*
X199333390Y-96785713D01*
X199333390Y-96785713D02*
X199142914Y-96738094D01*
X199142914Y-96738094D02*
X199047676Y-96690475D01*
X199047676Y-96690475D02*
X198952438Y-96595237D01*
X198952438Y-96595237D02*
X198904819Y-96452380D01*
X198904819Y-96452380D02*
X198904819Y-96357142D01*
X198904819Y-96357142D02*
X198952438Y-96214285D01*
X198952438Y-96214285D02*
X199000057Y-96166666D01*
X199000057Y-95785713D02*
X198952438Y-95738094D01*
X198952438Y-95738094D02*
X198904819Y-95642856D01*
X198904819Y-95642856D02*
X198904819Y-95404761D01*
X198904819Y-95404761D02*
X198952438Y-95309523D01*
X198952438Y-95309523D02*
X199000057Y-95261904D01*
X199000057Y-95261904D02*
X199095295Y-95214285D01*
X199095295Y-95214285D02*
X199190533Y-95214285D01*
X199190533Y-95214285D02*
X199333390Y-95261904D01*
X199333390Y-95261904D02*
X199904819Y-95833332D01*
X199904819Y-95833332D02*
X199904819Y-95214285D01*
X164357142Y-100859580D02*
X164309523Y-100907200D01*
X164309523Y-100907200D02*
X164166666Y-100954819D01*
X164166666Y-100954819D02*
X164071428Y-100954819D01*
X164071428Y-100954819D02*
X163928571Y-100907200D01*
X163928571Y-100907200D02*
X163833333Y-100811961D01*
X163833333Y-100811961D02*
X163785714Y-100716723D01*
X163785714Y-100716723D02*
X163738095Y-100526247D01*
X163738095Y-100526247D02*
X163738095Y-100383390D01*
X163738095Y-100383390D02*
X163785714Y-100192914D01*
X163785714Y-100192914D02*
X163833333Y-100097676D01*
X163833333Y-100097676D02*
X163928571Y-100002438D01*
X163928571Y-100002438D02*
X164071428Y-99954819D01*
X164071428Y-99954819D02*
X164166666Y-99954819D01*
X164166666Y-99954819D02*
X164309523Y-100002438D01*
X164309523Y-100002438D02*
X164357142Y-100050057D01*
X165309523Y-100954819D02*
X164738095Y-100954819D01*
X165023809Y-100954819D02*
X165023809Y-99954819D01*
X165023809Y-99954819D02*
X164928571Y-100097676D01*
X164928571Y-100097676D02*
X164833333Y-100192914D01*
X164833333Y-100192914D02*
X164738095Y-100240533D01*
X165928571Y-99954819D02*
X166023809Y-99954819D01*
X166023809Y-99954819D02*
X166119047Y-100002438D01*
X166119047Y-100002438D02*
X166166666Y-100050057D01*
X166166666Y-100050057D02*
X166214285Y-100145295D01*
X166214285Y-100145295D02*
X166261904Y-100335771D01*
X166261904Y-100335771D02*
X166261904Y-100573866D01*
X166261904Y-100573866D02*
X166214285Y-100764342D01*
X166214285Y-100764342D02*
X166166666Y-100859580D01*
X166166666Y-100859580D02*
X166119047Y-100907200D01*
X166119047Y-100907200D02*
X166023809Y-100954819D01*
X166023809Y-100954819D02*
X165928571Y-100954819D01*
X165928571Y-100954819D02*
X165833333Y-100907200D01*
X165833333Y-100907200D02*
X165785714Y-100859580D01*
X165785714Y-100859580D02*
X165738095Y-100764342D01*
X165738095Y-100764342D02*
X165690476Y-100573866D01*
X165690476Y-100573866D02*
X165690476Y-100335771D01*
X165690476Y-100335771D02*
X165738095Y-100145295D01*
X165738095Y-100145295D02*
X165785714Y-100050057D01*
X165785714Y-100050057D02*
X165833333Y-100002438D01*
X165833333Y-100002438D02*
X165928571Y-99954819D01*
X169357142Y-110954819D02*
X169023809Y-110478628D01*
X168785714Y-110954819D02*
X168785714Y-109954819D01*
X168785714Y-109954819D02*
X169166666Y-109954819D01*
X169166666Y-109954819D02*
X169261904Y-110002438D01*
X169261904Y-110002438D02*
X169309523Y-110050057D01*
X169309523Y-110050057D02*
X169357142Y-110145295D01*
X169357142Y-110145295D02*
X169357142Y-110288152D01*
X169357142Y-110288152D02*
X169309523Y-110383390D01*
X169309523Y-110383390D02*
X169261904Y-110431009D01*
X169261904Y-110431009D02*
X169166666Y-110478628D01*
X169166666Y-110478628D02*
X168785714Y-110478628D01*
X170309523Y-110954819D02*
X169738095Y-110954819D01*
X170023809Y-110954819D02*
X170023809Y-109954819D01*
X170023809Y-109954819D02*
X169928571Y-110097676D01*
X169928571Y-110097676D02*
X169833333Y-110192914D01*
X169833333Y-110192914D02*
X169738095Y-110240533D01*
X171261904Y-110954819D02*
X170690476Y-110954819D01*
X170976190Y-110954819D02*
X170976190Y-109954819D01*
X170976190Y-109954819D02*
X170880952Y-110097676D01*
X170880952Y-110097676D02*
X170785714Y-110192914D01*
X170785714Y-110192914D02*
X170690476Y-110240533D01*
X251907200Y-94083332D02*
X251954819Y-93940475D01*
X251954819Y-93940475D02*
X251954819Y-93702380D01*
X251954819Y-93702380D02*
X251907200Y-93607142D01*
X251907200Y-93607142D02*
X251859580Y-93559523D01*
X251859580Y-93559523D02*
X251764342Y-93511904D01*
X251764342Y-93511904D02*
X251669104Y-93511904D01*
X251669104Y-93511904D02*
X251573866Y-93559523D01*
X251573866Y-93559523D02*
X251526247Y-93607142D01*
X251526247Y-93607142D02*
X251478628Y-93702380D01*
X251478628Y-93702380D02*
X251431009Y-93892856D01*
X251431009Y-93892856D02*
X251383390Y-93988094D01*
X251383390Y-93988094D02*
X251335771Y-94035713D01*
X251335771Y-94035713D02*
X251240533Y-94083332D01*
X251240533Y-94083332D02*
X251145295Y-94083332D01*
X251145295Y-94083332D02*
X251050057Y-94035713D01*
X251050057Y-94035713D02*
X251002438Y-93988094D01*
X251002438Y-93988094D02*
X250954819Y-93892856D01*
X250954819Y-93892856D02*
X250954819Y-93654761D01*
X250954819Y-93654761D02*
X251002438Y-93511904D01*
X250954819Y-93178570D02*
X251954819Y-92940475D01*
X251954819Y-92940475D02*
X251240533Y-92749999D01*
X251240533Y-92749999D02*
X251954819Y-92559523D01*
X251954819Y-92559523D02*
X250954819Y-92321428D01*
X251288152Y-91511904D02*
X251954819Y-91511904D01*
X250907200Y-91749999D02*
X251621485Y-91988094D01*
X251621485Y-91988094D02*
X251621485Y-91369047D01*
X219798095Y-116454819D02*
X219798095Y-117264342D01*
X219798095Y-117264342D02*
X219845714Y-117359580D01*
X219845714Y-117359580D02*
X219893333Y-117407200D01*
X219893333Y-117407200D02*
X219988571Y-117454819D01*
X219988571Y-117454819D02*
X220179047Y-117454819D01*
X220179047Y-117454819D02*
X220274285Y-117407200D01*
X220274285Y-117407200D02*
X220321904Y-117359580D01*
X220321904Y-117359580D02*
X220369523Y-117264342D01*
X220369523Y-117264342D02*
X220369523Y-116454819D01*
X220798095Y-116550057D02*
X220845714Y-116502438D01*
X220845714Y-116502438D02*
X220940952Y-116454819D01*
X220940952Y-116454819D02*
X221179047Y-116454819D01*
X221179047Y-116454819D02*
X221274285Y-116502438D01*
X221274285Y-116502438D02*
X221321904Y-116550057D01*
X221321904Y-116550057D02*
X221369523Y-116645295D01*
X221369523Y-116645295D02*
X221369523Y-116740533D01*
X221369523Y-116740533D02*
X221321904Y-116883390D01*
X221321904Y-116883390D02*
X220750476Y-117454819D01*
X220750476Y-117454819D02*
X221369523Y-117454819D01*
X238833333Y-96454819D02*
X238500000Y-95978628D01*
X238261905Y-96454819D02*
X238261905Y-95454819D01*
X238261905Y-95454819D02*
X238642857Y-95454819D01*
X238642857Y-95454819D02*
X238738095Y-95502438D01*
X238738095Y-95502438D02*
X238785714Y-95550057D01*
X238785714Y-95550057D02*
X238833333Y-95645295D01*
X238833333Y-95645295D02*
X238833333Y-95788152D01*
X238833333Y-95788152D02*
X238785714Y-95883390D01*
X238785714Y-95883390D02*
X238738095Y-95931009D01*
X238738095Y-95931009D02*
X238642857Y-95978628D01*
X238642857Y-95978628D02*
X238261905Y-95978628D01*
X239690476Y-95788152D02*
X239690476Y-96454819D01*
X239452381Y-95407200D02*
X239214286Y-96121485D01*
X239214286Y-96121485D02*
X239833333Y-96121485D01*
X167954819Y-134142857D02*
X167478628Y-134476190D01*
X167954819Y-134714285D02*
X166954819Y-134714285D01*
X166954819Y-134714285D02*
X166954819Y-134333333D01*
X166954819Y-134333333D02*
X167002438Y-134238095D01*
X167002438Y-134238095D02*
X167050057Y-134190476D01*
X167050057Y-134190476D02*
X167145295Y-134142857D01*
X167145295Y-134142857D02*
X167288152Y-134142857D01*
X167288152Y-134142857D02*
X167383390Y-134190476D01*
X167383390Y-134190476D02*
X167431009Y-134238095D01*
X167431009Y-134238095D02*
X167478628Y-134333333D01*
X167478628Y-134333333D02*
X167478628Y-134714285D01*
X167954819Y-133190476D02*
X167954819Y-133761904D01*
X167954819Y-133476190D02*
X166954819Y-133476190D01*
X166954819Y-133476190D02*
X167097676Y-133571428D01*
X167097676Y-133571428D02*
X167192914Y-133666666D01*
X167192914Y-133666666D02*
X167240533Y-133761904D01*
X166954819Y-132571428D02*
X166954819Y-132476190D01*
X166954819Y-132476190D02*
X167002438Y-132380952D01*
X167002438Y-132380952D02*
X167050057Y-132333333D01*
X167050057Y-132333333D02*
X167145295Y-132285714D01*
X167145295Y-132285714D02*
X167335771Y-132238095D01*
X167335771Y-132238095D02*
X167573866Y-132238095D01*
X167573866Y-132238095D02*
X167764342Y-132285714D01*
X167764342Y-132285714D02*
X167859580Y-132333333D01*
X167859580Y-132333333D02*
X167907200Y-132380952D01*
X167907200Y-132380952D02*
X167954819Y-132476190D01*
X167954819Y-132476190D02*
X167954819Y-132571428D01*
X167954819Y-132571428D02*
X167907200Y-132666666D01*
X167907200Y-132666666D02*
X167859580Y-132714285D01*
X167859580Y-132714285D02*
X167764342Y-132761904D01*
X167764342Y-132761904D02*
X167573866Y-132809523D01*
X167573866Y-132809523D02*
X167335771Y-132809523D01*
X167335771Y-132809523D02*
X167145295Y-132761904D01*
X167145295Y-132761904D02*
X167050057Y-132714285D01*
X167050057Y-132714285D02*
X167002438Y-132666666D01*
X167002438Y-132666666D02*
X166954819Y-132571428D01*
X252666667Y-74907200D02*
X252809524Y-74954819D01*
X252809524Y-74954819D02*
X253047619Y-74954819D01*
X253047619Y-74954819D02*
X253142857Y-74907200D01*
X253142857Y-74907200D02*
X253190476Y-74859580D01*
X253190476Y-74859580D02*
X253238095Y-74764342D01*
X253238095Y-74764342D02*
X253238095Y-74669104D01*
X253238095Y-74669104D02*
X253190476Y-74573866D01*
X253190476Y-74573866D02*
X253142857Y-74526247D01*
X253142857Y-74526247D02*
X253047619Y-74478628D01*
X253047619Y-74478628D02*
X252857143Y-74431009D01*
X252857143Y-74431009D02*
X252761905Y-74383390D01*
X252761905Y-74383390D02*
X252714286Y-74335771D01*
X252714286Y-74335771D02*
X252666667Y-74240533D01*
X252666667Y-74240533D02*
X252666667Y-74145295D01*
X252666667Y-74145295D02*
X252714286Y-74050057D01*
X252714286Y-74050057D02*
X252761905Y-74002438D01*
X252761905Y-74002438D02*
X252857143Y-73954819D01*
X252857143Y-73954819D02*
X253095238Y-73954819D01*
X253095238Y-73954819D02*
X253238095Y-74002438D01*
X253571429Y-73954819D02*
X253809524Y-74954819D01*
X253809524Y-74954819D02*
X254000000Y-74240533D01*
X254000000Y-74240533D02*
X254190476Y-74954819D01*
X254190476Y-74954819D02*
X254428572Y-73954819D01*
X255238095Y-73954819D02*
X255047619Y-73954819D01*
X255047619Y-73954819D02*
X254952381Y-74002438D01*
X254952381Y-74002438D02*
X254904762Y-74050057D01*
X254904762Y-74050057D02*
X254809524Y-74192914D01*
X254809524Y-74192914D02*
X254761905Y-74383390D01*
X254761905Y-74383390D02*
X254761905Y-74764342D01*
X254761905Y-74764342D02*
X254809524Y-74859580D01*
X254809524Y-74859580D02*
X254857143Y-74907200D01*
X254857143Y-74907200D02*
X254952381Y-74954819D01*
X254952381Y-74954819D02*
X255142857Y-74954819D01*
X255142857Y-74954819D02*
X255238095Y-74907200D01*
X255238095Y-74907200D02*
X255285714Y-74859580D01*
X255285714Y-74859580D02*
X255333333Y-74764342D01*
X255333333Y-74764342D02*
X255333333Y-74526247D01*
X255333333Y-74526247D02*
X255285714Y-74431009D01*
X255285714Y-74431009D02*
X255238095Y-74383390D01*
X255238095Y-74383390D02*
X255142857Y-74335771D01*
X255142857Y-74335771D02*
X254952381Y-74335771D01*
X254952381Y-74335771D02*
X254857143Y-74383390D01*
X254857143Y-74383390D02*
X254809524Y-74431009D01*
X254809524Y-74431009D02*
X254761905Y-74526247D01*
X230833333Y-96454819D02*
X230500000Y-95978628D01*
X230261905Y-96454819D02*
X230261905Y-95454819D01*
X230261905Y-95454819D02*
X230642857Y-95454819D01*
X230642857Y-95454819D02*
X230738095Y-95502438D01*
X230738095Y-95502438D02*
X230785714Y-95550057D01*
X230785714Y-95550057D02*
X230833333Y-95645295D01*
X230833333Y-95645295D02*
X230833333Y-95788152D01*
X230833333Y-95788152D02*
X230785714Y-95883390D01*
X230785714Y-95883390D02*
X230738095Y-95931009D01*
X230738095Y-95931009D02*
X230642857Y-95978628D01*
X230642857Y-95978628D02*
X230261905Y-95978628D01*
X231214286Y-95550057D02*
X231261905Y-95502438D01*
X231261905Y-95502438D02*
X231357143Y-95454819D01*
X231357143Y-95454819D02*
X231595238Y-95454819D01*
X231595238Y-95454819D02*
X231690476Y-95502438D01*
X231690476Y-95502438D02*
X231738095Y-95550057D01*
X231738095Y-95550057D02*
X231785714Y-95645295D01*
X231785714Y-95645295D02*
X231785714Y-95740533D01*
X231785714Y-95740533D02*
X231738095Y-95883390D01*
X231738095Y-95883390D02*
X231166667Y-96454819D01*
X231166667Y-96454819D02*
X231785714Y-96454819D01*
X242833333Y-96454819D02*
X242500000Y-95978628D01*
X242261905Y-96454819D02*
X242261905Y-95454819D01*
X242261905Y-95454819D02*
X242642857Y-95454819D01*
X242642857Y-95454819D02*
X242738095Y-95502438D01*
X242738095Y-95502438D02*
X242785714Y-95550057D01*
X242785714Y-95550057D02*
X242833333Y-95645295D01*
X242833333Y-95645295D02*
X242833333Y-95788152D01*
X242833333Y-95788152D02*
X242785714Y-95883390D01*
X242785714Y-95883390D02*
X242738095Y-95931009D01*
X242738095Y-95931009D02*
X242642857Y-95978628D01*
X242642857Y-95978628D02*
X242261905Y-95978628D01*
X243738095Y-95454819D02*
X243261905Y-95454819D01*
X243261905Y-95454819D02*
X243214286Y-95931009D01*
X243214286Y-95931009D02*
X243261905Y-95883390D01*
X243261905Y-95883390D02*
X243357143Y-95835771D01*
X243357143Y-95835771D02*
X243595238Y-95835771D01*
X243595238Y-95835771D02*
X243690476Y-95883390D01*
X243690476Y-95883390D02*
X243738095Y-95931009D01*
X243738095Y-95931009D02*
X243785714Y-96026247D01*
X243785714Y-96026247D02*
X243785714Y-96264342D01*
X243785714Y-96264342D02*
X243738095Y-96359580D01*
X243738095Y-96359580D02*
X243690476Y-96407200D01*
X243690476Y-96407200D02*
X243595238Y-96454819D01*
X243595238Y-96454819D02*
X243357143Y-96454819D01*
X243357143Y-96454819D02*
X243261905Y-96407200D01*
X243261905Y-96407200D02*
X243214286Y-96359580D01*
X166954819Y-123666666D02*
X166478628Y-123999999D01*
X166954819Y-124238094D02*
X165954819Y-124238094D01*
X165954819Y-124238094D02*
X165954819Y-123857142D01*
X165954819Y-123857142D02*
X166002438Y-123761904D01*
X166002438Y-123761904D02*
X166050057Y-123714285D01*
X166050057Y-123714285D02*
X166145295Y-123666666D01*
X166145295Y-123666666D02*
X166288152Y-123666666D01*
X166288152Y-123666666D02*
X166383390Y-123714285D01*
X166383390Y-123714285D02*
X166431009Y-123761904D01*
X166431009Y-123761904D02*
X166478628Y-123857142D01*
X166478628Y-123857142D02*
X166478628Y-124238094D01*
X166954819Y-123190475D02*
X166954819Y-122999999D01*
X166954819Y-122999999D02*
X166907200Y-122904761D01*
X166907200Y-122904761D02*
X166859580Y-122857142D01*
X166859580Y-122857142D02*
X166716723Y-122761904D01*
X166716723Y-122761904D02*
X166526247Y-122714285D01*
X166526247Y-122714285D02*
X166145295Y-122714285D01*
X166145295Y-122714285D02*
X166050057Y-122761904D01*
X166050057Y-122761904D02*
X166002438Y-122809523D01*
X166002438Y-122809523D02*
X165954819Y-122904761D01*
X165954819Y-122904761D02*
X165954819Y-123095237D01*
X165954819Y-123095237D02*
X166002438Y-123190475D01*
X166002438Y-123190475D02*
X166050057Y-123238094D01*
X166050057Y-123238094D02*
X166145295Y-123285713D01*
X166145295Y-123285713D02*
X166383390Y-123285713D01*
X166383390Y-123285713D02*
X166478628Y-123238094D01*
X166478628Y-123238094D02*
X166526247Y-123190475D01*
X166526247Y-123190475D02*
X166573866Y-123095237D01*
X166573866Y-123095237D02*
X166573866Y-122904761D01*
X166573866Y-122904761D02*
X166526247Y-122809523D01*
X166526247Y-122809523D02*
X166478628Y-122761904D01*
X166478628Y-122761904D02*
X166383390Y-122714285D01*
X234833333Y-96454819D02*
X234500000Y-95978628D01*
X234261905Y-96454819D02*
X234261905Y-95454819D01*
X234261905Y-95454819D02*
X234642857Y-95454819D01*
X234642857Y-95454819D02*
X234738095Y-95502438D01*
X234738095Y-95502438D02*
X234785714Y-95550057D01*
X234785714Y-95550057D02*
X234833333Y-95645295D01*
X234833333Y-95645295D02*
X234833333Y-95788152D01*
X234833333Y-95788152D02*
X234785714Y-95883390D01*
X234785714Y-95883390D02*
X234738095Y-95931009D01*
X234738095Y-95931009D02*
X234642857Y-95978628D01*
X234642857Y-95978628D02*
X234261905Y-95978628D01*
X235166667Y-95454819D02*
X235785714Y-95454819D01*
X235785714Y-95454819D02*
X235452381Y-95835771D01*
X235452381Y-95835771D02*
X235595238Y-95835771D01*
X235595238Y-95835771D02*
X235690476Y-95883390D01*
X235690476Y-95883390D02*
X235738095Y-95931009D01*
X235738095Y-95931009D02*
X235785714Y-96026247D01*
X235785714Y-96026247D02*
X235785714Y-96264342D01*
X235785714Y-96264342D02*
X235738095Y-96359580D01*
X235738095Y-96359580D02*
X235690476Y-96407200D01*
X235690476Y-96407200D02*
X235595238Y-96454819D01*
X235595238Y-96454819D02*
X235309524Y-96454819D01*
X235309524Y-96454819D02*
X235214286Y-96407200D01*
X235214286Y-96407200D02*
X235166667Y-96359580D01*
X218666667Y-74907200D02*
X218809524Y-74954819D01*
X218809524Y-74954819D02*
X219047619Y-74954819D01*
X219047619Y-74954819D02*
X219142857Y-74907200D01*
X219142857Y-74907200D02*
X219190476Y-74859580D01*
X219190476Y-74859580D02*
X219238095Y-74764342D01*
X219238095Y-74764342D02*
X219238095Y-74669104D01*
X219238095Y-74669104D02*
X219190476Y-74573866D01*
X219190476Y-74573866D02*
X219142857Y-74526247D01*
X219142857Y-74526247D02*
X219047619Y-74478628D01*
X219047619Y-74478628D02*
X218857143Y-74431009D01*
X218857143Y-74431009D02*
X218761905Y-74383390D01*
X218761905Y-74383390D02*
X218714286Y-74335771D01*
X218714286Y-74335771D02*
X218666667Y-74240533D01*
X218666667Y-74240533D02*
X218666667Y-74145295D01*
X218666667Y-74145295D02*
X218714286Y-74050057D01*
X218714286Y-74050057D02*
X218761905Y-74002438D01*
X218761905Y-74002438D02*
X218857143Y-73954819D01*
X218857143Y-73954819D02*
X219095238Y-73954819D01*
X219095238Y-73954819D02*
X219238095Y-74002438D01*
X219571429Y-73954819D02*
X219809524Y-74954819D01*
X219809524Y-74954819D02*
X220000000Y-74240533D01*
X220000000Y-74240533D02*
X220190476Y-74954819D01*
X220190476Y-74954819D02*
X220428572Y-73954819D01*
X221333333Y-74954819D02*
X220761905Y-74954819D01*
X221047619Y-74954819D02*
X221047619Y-73954819D01*
X221047619Y-73954819D02*
X220952381Y-74097676D01*
X220952381Y-74097676D02*
X220857143Y-74192914D01*
X220857143Y-74192914D02*
X220761905Y-74240533D01*
X227166667Y-74907200D02*
X227309524Y-74954819D01*
X227309524Y-74954819D02*
X227547619Y-74954819D01*
X227547619Y-74954819D02*
X227642857Y-74907200D01*
X227642857Y-74907200D02*
X227690476Y-74859580D01*
X227690476Y-74859580D02*
X227738095Y-74764342D01*
X227738095Y-74764342D02*
X227738095Y-74669104D01*
X227738095Y-74669104D02*
X227690476Y-74573866D01*
X227690476Y-74573866D02*
X227642857Y-74526247D01*
X227642857Y-74526247D02*
X227547619Y-74478628D01*
X227547619Y-74478628D02*
X227357143Y-74431009D01*
X227357143Y-74431009D02*
X227261905Y-74383390D01*
X227261905Y-74383390D02*
X227214286Y-74335771D01*
X227214286Y-74335771D02*
X227166667Y-74240533D01*
X227166667Y-74240533D02*
X227166667Y-74145295D01*
X227166667Y-74145295D02*
X227214286Y-74050057D01*
X227214286Y-74050057D02*
X227261905Y-74002438D01*
X227261905Y-74002438D02*
X227357143Y-73954819D01*
X227357143Y-73954819D02*
X227595238Y-73954819D01*
X227595238Y-73954819D02*
X227738095Y-74002438D01*
X228071429Y-73954819D02*
X228309524Y-74954819D01*
X228309524Y-74954819D02*
X228500000Y-74240533D01*
X228500000Y-74240533D02*
X228690476Y-74954819D01*
X228690476Y-74954819D02*
X228928572Y-73954819D01*
X229261905Y-74050057D02*
X229309524Y-74002438D01*
X229309524Y-74002438D02*
X229404762Y-73954819D01*
X229404762Y-73954819D02*
X229642857Y-73954819D01*
X229642857Y-73954819D02*
X229738095Y-74002438D01*
X229738095Y-74002438D02*
X229785714Y-74050057D01*
X229785714Y-74050057D02*
X229833333Y-74145295D01*
X229833333Y-74145295D02*
X229833333Y-74240533D01*
X229833333Y-74240533D02*
X229785714Y-74383390D01*
X229785714Y-74383390D02*
X229214286Y-74954819D01*
X229214286Y-74954819D02*
X229833333Y-74954819D01*
X163454819Y-133666666D02*
X162978628Y-133999999D01*
X163454819Y-134238094D02*
X162454819Y-134238094D01*
X162454819Y-134238094D02*
X162454819Y-133857142D01*
X162454819Y-133857142D02*
X162502438Y-133761904D01*
X162502438Y-133761904D02*
X162550057Y-133714285D01*
X162550057Y-133714285D02*
X162645295Y-133666666D01*
X162645295Y-133666666D02*
X162788152Y-133666666D01*
X162788152Y-133666666D02*
X162883390Y-133714285D01*
X162883390Y-133714285D02*
X162931009Y-133761904D01*
X162931009Y-133761904D02*
X162978628Y-133857142D01*
X162978628Y-133857142D02*
X162978628Y-134238094D01*
X162883390Y-133095237D02*
X162835771Y-133190475D01*
X162835771Y-133190475D02*
X162788152Y-133238094D01*
X162788152Y-133238094D02*
X162692914Y-133285713D01*
X162692914Y-133285713D02*
X162645295Y-133285713D01*
X162645295Y-133285713D02*
X162550057Y-133238094D01*
X162550057Y-133238094D02*
X162502438Y-133190475D01*
X162502438Y-133190475D02*
X162454819Y-133095237D01*
X162454819Y-133095237D02*
X162454819Y-132904761D01*
X162454819Y-132904761D02*
X162502438Y-132809523D01*
X162502438Y-132809523D02*
X162550057Y-132761904D01*
X162550057Y-132761904D02*
X162645295Y-132714285D01*
X162645295Y-132714285D02*
X162692914Y-132714285D01*
X162692914Y-132714285D02*
X162788152Y-132761904D01*
X162788152Y-132761904D02*
X162835771Y-132809523D01*
X162835771Y-132809523D02*
X162883390Y-132904761D01*
X162883390Y-132904761D02*
X162883390Y-133095237D01*
X162883390Y-133095237D02*
X162931009Y-133190475D01*
X162931009Y-133190475D02*
X162978628Y-133238094D01*
X162978628Y-133238094D02*
X163073866Y-133285713D01*
X163073866Y-133285713D02*
X163264342Y-133285713D01*
X163264342Y-133285713D02*
X163359580Y-133238094D01*
X163359580Y-133238094D02*
X163407200Y-133190475D01*
X163407200Y-133190475D02*
X163454819Y-133095237D01*
X163454819Y-133095237D02*
X163454819Y-132904761D01*
X163454819Y-132904761D02*
X163407200Y-132809523D01*
X163407200Y-132809523D02*
X163359580Y-132761904D01*
X163359580Y-132761904D02*
X163264342Y-132714285D01*
X163264342Y-132714285D02*
X163073866Y-132714285D01*
X163073866Y-132714285D02*
X162978628Y-132761904D01*
X162978628Y-132761904D02*
X162931009Y-132809523D01*
X162931009Y-132809523D02*
X162883390Y-132904761D01*
X195359580Y-93666666D02*
X195407200Y-93714285D01*
X195407200Y-93714285D02*
X195454819Y-93857142D01*
X195454819Y-93857142D02*
X195454819Y-93952380D01*
X195454819Y-93952380D02*
X195407200Y-94095237D01*
X195407200Y-94095237D02*
X195311961Y-94190475D01*
X195311961Y-94190475D02*
X195216723Y-94238094D01*
X195216723Y-94238094D02*
X195026247Y-94285713D01*
X195026247Y-94285713D02*
X194883390Y-94285713D01*
X194883390Y-94285713D02*
X194692914Y-94238094D01*
X194692914Y-94238094D02*
X194597676Y-94190475D01*
X194597676Y-94190475D02*
X194502438Y-94095237D01*
X194502438Y-94095237D02*
X194454819Y-93952380D01*
X194454819Y-93952380D02*
X194454819Y-93857142D01*
X194454819Y-93857142D02*
X194502438Y-93714285D01*
X194502438Y-93714285D02*
X194550057Y-93666666D01*
X195454819Y-92714285D02*
X195454819Y-93285713D01*
X195454819Y-92999999D02*
X194454819Y-92999999D01*
X194454819Y-92999999D02*
X194597676Y-93095237D01*
X194597676Y-93095237D02*
X194692914Y-93190475D01*
X194692914Y-93190475D02*
X194740533Y-93285713D01*
X168833333Y-107954819D02*
X168500000Y-107478628D01*
X168261905Y-107954819D02*
X168261905Y-106954819D01*
X168261905Y-106954819D02*
X168642857Y-106954819D01*
X168642857Y-106954819D02*
X168738095Y-107002438D01*
X168738095Y-107002438D02*
X168785714Y-107050057D01*
X168785714Y-107050057D02*
X168833333Y-107145295D01*
X168833333Y-107145295D02*
X168833333Y-107288152D01*
X168833333Y-107288152D02*
X168785714Y-107383390D01*
X168785714Y-107383390D02*
X168738095Y-107431009D01*
X168738095Y-107431009D02*
X168642857Y-107478628D01*
X168642857Y-107478628D02*
X168261905Y-107478628D01*
X169785714Y-107954819D02*
X169214286Y-107954819D01*
X169500000Y-107954819D02*
X169500000Y-106954819D01*
X169500000Y-106954819D02*
X169404762Y-107097676D01*
X169404762Y-107097676D02*
X169309524Y-107192914D01*
X169309524Y-107192914D02*
X169214286Y-107240533D01*
X163592261Y-111150057D02*
X163497023Y-111102438D01*
X163497023Y-111102438D02*
X163401785Y-111007200D01*
X163401785Y-111007200D02*
X163258928Y-110864342D01*
X163258928Y-110864342D02*
X163163690Y-110816723D01*
X163163690Y-110816723D02*
X163068452Y-110816723D01*
X163116071Y-111054819D02*
X163020833Y-111007200D01*
X163020833Y-111007200D02*
X162925595Y-110911961D01*
X162925595Y-110911961D02*
X162877976Y-110721485D01*
X162877976Y-110721485D02*
X162877976Y-110388152D01*
X162877976Y-110388152D02*
X162925595Y-110197676D01*
X162925595Y-110197676D02*
X163020833Y-110102438D01*
X163020833Y-110102438D02*
X163116071Y-110054819D01*
X163116071Y-110054819D02*
X163306547Y-110054819D01*
X163306547Y-110054819D02*
X163401785Y-110102438D01*
X163401785Y-110102438D02*
X163497023Y-110197676D01*
X163497023Y-110197676D02*
X163544642Y-110388152D01*
X163544642Y-110388152D02*
X163544642Y-110721485D01*
X163544642Y-110721485D02*
X163497023Y-110911961D01*
X163497023Y-110911961D02*
X163401785Y-111007200D01*
X163401785Y-111007200D02*
X163306547Y-111054819D01*
X163306547Y-111054819D02*
X163116071Y-111054819D01*
X163925595Y-110150057D02*
X163973214Y-110102438D01*
X163973214Y-110102438D02*
X164068452Y-110054819D01*
X164068452Y-110054819D02*
X164306547Y-110054819D01*
X164306547Y-110054819D02*
X164401785Y-110102438D01*
X164401785Y-110102438D02*
X164449404Y-110150057D01*
X164449404Y-110150057D02*
X164497023Y-110245295D01*
X164497023Y-110245295D02*
X164497023Y-110340533D01*
X164497023Y-110340533D02*
X164449404Y-110483390D01*
X164449404Y-110483390D02*
X163877976Y-111054819D01*
X163877976Y-111054819D02*
X164497023Y-111054819D01*
X188738095Y-89254819D02*
X188738095Y-90064342D01*
X188738095Y-90064342D02*
X188785714Y-90159580D01*
X188785714Y-90159580D02*
X188833333Y-90207200D01*
X188833333Y-90207200D02*
X188928571Y-90254819D01*
X188928571Y-90254819D02*
X189119047Y-90254819D01*
X189119047Y-90254819D02*
X189214285Y-90207200D01*
X189214285Y-90207200D02*
X189261904Y-90159580D01*
X189261904Y-90159580D02*
X189309523Y-90064342D01*
X189309523Y-90064342D02*
X189309523Y-89254819D01*
X189690476Y-89254819D02*
X190309523Y-89254819D01*
X190309523Y-89254819D02*
X189976190Y-89635771D01*
X189976190Y-89635771D02*
X190119047Y-89635771D01*
X190119047Y-89635771D02*
X190214285Y-89683390D01*
X190214285Y-89683390D02*
X190261904Y-89731009D01*
X190261904Y-89731009D02*
X190309523Y-89826247D01*
X190309523Y-89826247D02*
X190309523Y-90064342D01*
X190309523Y-90064342D02*
X190261904Y-90159580D01*
X190261904Y-90159580D02*
X190214285Y-90207200D01*
X190214285Y-90207200D02*
X190119047Y-90254819D01*
X190119047Y-90254819D02*
X189833333Y-90254819D01*
X189833333Y-90254819D02*
X189738095Y-90207200D01*
X189738095Y-90207200D02*
X189690476Y-90159580D01*
X246333333Y-96454819D02*
X246000000Y-95978628D01*
X245761905Y-96454819D02*
X245761905Y-95454819D01*
X245761905Y-95454819D02*
X246142857Y-95454819D01*
X246142857Y-95454819D02*
X246238095Y-95502438D01*
X246238095Y-95502438D02*
X246285714Y-95550057D01*
X246285714Y-95550057D02*
X246333333Y-95645295D01*
X246333333Y-95645295D02*
X246333333Y-95788152D01*
X246333333Y-95788152D02*
X246285714Y-95883390D01*
X246285714Y-95883390D02*
X246238095Y-95931009D01*
X246238095Y-95931009D02*
X246142857Y-95978628D01*
X246142857Y-95978628D02*
X245761905Y-95978628D01*
X247190476Y-95454819D02*
X247000000Y-95454819D01*
X247000000Y-95454819D02*
X246904762Y-95502438D01*
X246904762Y-95502438D02*
X246857143Y-95550057D01*
X246857143Y-95550057D02*
X246761905Y-95692914D01*
X246761905Y-95692914D02*
X246714286Y-95883390D01*
X246714286Y-95883390D02*
X246714286Y-96264342D01*
X246714286Y-96264342D02*
X246761905Y-96359580D01*
X246761905Y-96359580D02*
X246809524Y-96407200D01*
X246809524Y-96407200D02*
X246904762Y-96454819D01*
X246904762Y-96454819D02*
X247095238Y-96454819D01*
X247095238Y-96454819D02*
X247190476Y-96407200D01*
X247190476Y-96407200D02*
X247238095Y-96359580D01*
X247238095Y-96359580D02*
X247285714Y-96264342D01*
X247285714Y-96264342D02*
X247285714Y-96026247D01*
X247285714Y-96026247D02*
X247238095Y-95931009D01*
X247238095Y-95931009D02*
X247190476Y-95883390D01*
X247190476Y-95883390D02*
X247095238Y-95835771D01*
X247095238Y-95835771D02*
X246904762Y-95835771D01*
X246904762Y-95835771D02*
X246809524Y-95883390D01*
X246809524Y-95883390D02*
X246761905Y-95931009D01*
X246761905Y-95931009D02*
X246714286Y-96026247D01*
X244166667Y-74907200D02*
X244309524Y-74954819D01*
X244309524Y-74954819D02*
X244547619Y-74954819D01*
X244547619Y-74954819D02*
X244642857Y-74907200D01*
X244642857Y-74907200D02*
X244690476Y-74859580D01*
X244690476Y-74859580D02*
X244738095Y-74764342D01*
X244738095Y-74764342D02*
X244738095Y-74669104D01*
X244738095Y-74669104D02*
X244690476Y-74573866D01*
X244690476Y-74573866D02*
X244642857Y-74526247D01*
X244642857Y-74526247D02*
X244547619Y-74478628D01*
X244547619Y-74478628D02*
X244357143Y-74431009D01*
X244357143Y-74431009D02*
X244261905Y-74383390D01*
X244261905Y-74383390D02*
X244214286Y-74335771D01*
X244214286Y-74335771D02*
X244166667Y-74240533D01*
X244166667Y-74240533D02*
X244166667Y-74145295D01*
X244166667Y-74145295D02*
X244214286Y-74050057D01*
X244214286Y-74050057D02*
X244261905Y-74002438D01*
X244261905Y-74002438D02*
X244357143Y-73954819D01*
X244357143Y-73954819D02*
X244595238Y-73954819D01*
X244595238Y-73954819D02*
X244738095Y-74002438D01*
X245071429Y-73954819D02*
X245309524Y-74954819D01*
X245309524Y-74954819D02*
X245500000Y-74240533D01*
X245500000Y-74240533D02*
X245690476Y-74954819D01*
X245690476Y-74954819D02*
X245928572Y-73954819D01*
X246785714Y-73954819D02*
X246309524Y-73954819D01*
X246309524Y-73954819D02*
X246261905Y-74431009D01*
X246261905Y-74431009D02*
X246309524Y-74383390D01*
X246309524Y-74383390D02*
X246404762Y-74335771D01*
X246404762Y-74335771D02*
X246642857Y-74335771D01*
X246642857Y-74335771D02*
X246738095Y-74383390D01*
X246738095Y-74383390D02*
X246785714Y-74431009D01*
X246785714Y-74431009D02*
X246833333Y-74526247D01*
X246833333Y-74526247D02*
X246833333Y-74764342D01*
X246833333Y-74764342D02*
X246785714Y-74859580D01*
X246785714Y-74859580D02*
X246738095Y-74907200D01*
X246738095Y-74907200D02*
X246642857Y-74954819D01*
X246642857Y-74954819D02*
X246404762Y-74954819D01*
X246404762Y-74954819D02*
X246309524Y-74907200D01*
X246309524Y-74907200D02*
X246261905Y-74859580D01*
X223584819Y-92642857D02*
X223108628Y-92976190D01*
X223584819Y-93214285D02*
X222584819Y-93214285D01*
X222584819Y-93214285D02*
X222584819Y-92833333D01*
X222584819Y-92833333D02*
X222632438Y-92738095D01*
X222632438Y-92738095D02*
X222680057Y-92690476D01*
X222680057Y-92690476D02*
X222775295Y-92642857D01*
X222775295Y-92642857D02*
X222918152Y-92642857D01*
X222918152Y-92642857D02*
X223013390Y-92690476D01*
X223013390Y-92690476D02*
X223061009Y-92738095D01*
X223061009Y-92738095D02*
X223108628Y-92833333D01*
X223108628Y-92833333D02*
X223108628Y-93214285D01*
X223584819Y-91690476D02*
X223584819Y-92261904D01*
X223584819Y-91976190D02*
X222584819Y-91976190D01*
X222584819Y-91976190D02*
X222727676Y-92071428D01*
X222727676Y-92071428D02*
X222822914Y-92166666D01*
X222822914Y-92166666D02*
X222870533Y-92261904D01*
X222584819Y-91357142D02*
X222584819Y-90738095D01*
X222584819Y-90738095D02*
X222965771Y-91071428D01*
X222965771Y-91071428D02*
X222965771Y-90928571D01*
X222965771Y-90928571D02*
X223013390Y-90833333D01*
X223013390Y-90833333D02*
X223061009Y-90785714D01*
X223061009Y-90785714D02*
X223156247Y-90738095D01*
X223156247Y-90738095D02*
X223394342Y-90738095D01*
X223394342Y-90738095D02*
X223489580Y-90785714D01*
X223489580Y-90785714D02*
X223537200Y-90833333D01*
X223537200Y-90833333D02*
X223584819Y-90928571D01*
X223584819Y-90928571D02*
X223584819Y-91214285D01*
X223584819Y-91214285D02*
X223537200Y-91309523D01*
X223537200Y-91309523D02*
X223489580Y-91357142D01*
X173928095Y-116454819D02*
X173928095Y-117264342D01*
X173928095Y-117264342D02*
X173975714Y-117359580D01*
X173975714Y-117359580D02*
X174023333Y-117407200D01*
X174023333Y-117407200D02*
X174118571Y-117454819D01*
X174118571Y-117454819D02*
X174309047Y-117454819D01*
X174309047Y-117454819D02*
X174404285Y-117407200D01*
X174404285Y-117407200D02*
X174451904Y-117359580D01*
X174451904Y-117359580D02*
X174499523Y-117264342D01*
X174499523Y-117264342D02*
X174499523Y-116454819D01*
X175404285Y-116788152D02*
X175404285Y-117454819D01*
X175166190Y-116407200D02*
X174928095Y-117121485D01*
X174928095Y-117121485D02*
X175547142Y-117121485D01*
X216045180Y-84566666D02*
X215330895Y-84566666D01*
X215330895Y-84566666D02*
X215188038Y-84519047D01*
X215188038Y-84519047D02*
X215092800Y-84423809D01*
X215092800Y-84423809D02*
X215045180Y-84280952D01*
X215045180Y-84280952D02*
X215045180Y-84185714D01*
X215045180Y-85566666D02*
X215045180Y-84995238D01*
X215045180Y-85280952D02*
X216045180Y-85280952D01*
X216045180Y-85280952D02*
X215902323Y-85185714D01*
X215902323Y-85185714D02*
X215807085Y-85090476D01*
X215807085Y-85090476D02*
X215759466Y-84995238D01*
X177833333Y-96359580D02*
X177785714Y-96407200D01*
X177785714Y-96407200D02*
X177642857Y-96454819D01*
X177642857Y-96454819D02*
X177547619Y-96454819D01*
X177547619Y-96454819D02*
X177404762Y-96407200D01*
X177404762Y-96407200D02*
X177309524Y-96311961D01*
X177309524Y-96311961D02*
X177261905Y-96216723D01*
X177261905Y-96216723D02*
X177214286Y-96026247D01*
X177214286Y-96026247D02*
X177214286Y-95883390D01*
X177214286Y-95883390D02*
X177261905Y-95692914D01*
X177261905Y-95692914D02*
X177309524Y-95597676D01*
X177309524Y-95597676D02*
X177404762Y-95502438D01*
X177404762Y-95502438D02*
X177547619Y-95454819D01*
X177547619Y-95454819D02*
X177642857Y-95454819D01*
X177642857Y-95454819D02*
X177785714Y-95502438D01*
X177785714Y-95502438D02*
X177833333Y-95550057D01*
X178166667Y-95454819D02*
X178785714Y-95454819D01*
X178785714Y-95454819D02*
X178452381Y-95835771D01*
X178452381Y-95835771D02*
X178595238Y-95835771D01*
X178595238Y-95835771D02*
X178690476Y-95883390D01*
X178690476Y-95883390D02*
X178738095Y-95931009D01*
X178738095Y-95931009D02*
X178785714Y-96026247D01*
X178785714Y-96026247D02*
X178785714Y-96264342D01*
X178785714Y-96264342D02*
X178738095Y-96359580D01*
X178738095Y-96359580D02*
X178690476Y-96407200D01*
X178690476Y-96407200D02*
X178595238Y-96454819D01*
X178595238Y-96454819D02*
X178309524Y-96454819D01*
X178309524Y-96454819D02*
X178214286Y-96407200D01*
X178214286Y-96407200D02*
X178166667Y-96359580D01*
X166904761Y-108650057D02*
X166809523Y-108602438D01*
X166809523Y-108602438D02*
X166714285Y-108507200D01*
X166714285Y-108507200D02*
X166571428Y-108364342D01*
X166571428Y-108364342D02*
X166476190Y-108316723D01*
X166476190Y-108316723D02*
X166380952Y-108316723D01*
X166428571Y-108554819D02*
X166333333Y-108507200D01*
X166333333Y-108507200D02*
X166238095Y-108411961D01*
X166238095Y-108411961D02*
X166190476Y-108221485D01*
X166190476Y-108221485D02*
X166190476Y-107888152D01*
X166190476Y-107888152D02*
X166238095Y-107697676D01*
X166238095Y-107697676D02*
X166333333Y-107602438D01*
X166333333Y-107602438D02*
X166428571Y-107554819D01*
X166428571Y-107554819D02*
X166619047Y-107554819D01*
X166619047Y-107554819D02*
X166714285Y-107602438D01*
X166714285Y-107602438D02*
X166809523Y-107697676D01*
X166809523Y-107697676D02*
X166857142Y-107888152D01*
X166857142Y-107888152D02*
X166857142Y-108221485D01*
X166857142Y-108221485D02*
X166809523Y-108411961D01*
X166809523Y-108411961D02*
X166714285Y-108507200D01*
X166714285Y-108507200D02*
X166619047Y-108554819D01*
X166619047Y-108554819D02*
X166428571Y-108554819D01*
X167809523Y-108554819D02*
X167238095Y-108554819D01*
X167523809Y-108554819D02*
X167523809Y-107554819D01*
X167523809Y-107554819D02*
X167428571Y-107697676D01*
X167428571Y-107697676D02*
X167333333Y-107792914D01*
X167333333Y-107792914D02*
X167238095Y-107840533D01*
%TO.C,C9*%
D12*
X171120000Y-98500000D02*
G75*
G02*
X165880000Y-98500000I-2620000J0D01*
G01*
X165880000Y-98500000D02*
G75*
G02*
X171120000Y-98500000I2620000J0D01*
G01*
%TO.C,C7*%
X210080000Y-96015000D02*
X210080000Y-94485000D01*
X211920000Y-94485000D02*
X211920000Y-96015000D01*
%TO.C,C6*%
X205080000Y-96015000D02*
X205080000Y-94485000D01*
X206920000Y-94485000D02*
X206920000Y-96015000D01*
%TO.C,C8*%
X215080000Y-96265000D02*
X215080000Y-94735000D01*
X216920000Y-94735000D02*
X216920000Y-96265000D01*
%TO.C,U1*%
D13*
X161369000Y-89491272D02*
X161369000Y-81496000D01*
X161869000Y-80996000D02*
X162879000Y-80996000D01*
D14*
X162879000Y-78515000D02*
X162879000Y-92485000D01*
D13*
X162879000Y-78515000D02*
X162879000Y-92485000D01*
X162879000Y-89995000D02*
X161868728Y-89991272D01*
X181929000Y-76610000D02*
X164784000Y-76610000D01*
X181929000Y-94390000D02*
X164784000Y-94390000D01*
X183834000Y-92485000D02*
X183834000Y-78515000D01*
X161369000Y-81496000D02*
G75*
G02*
X161869000Y-80996000I500000J0D01*
G01*
X161868728Y-89991272D02*
G75*
G02*
X161369028Y-89491272I272J499972D01*
G01*
X162879000Y-78515000D02*
G75*
G02*
X164784000Y-76610000I1905000J0D01*
G01*
X164784000Y-94390000D02*
G75*
G02*
X162879000Y-92485000I0J1905000D01*
G01*
X181929000Y-76610000D02*
G75*
G02*
X183834000Y-78515000I-1J-1905001D01*
G01*
X183834000Y-92485000D02*
G75*
G02*
X181929000Y-94390000I-1905001J1D01*
G01*
D15*
X163272000Y-94404000D02*
G75*
G02*
X162768000Y-94404000I-252000J0D01*
G01*
X162768000Y-94404000D02*
G75*
G02*
X163272000Y-94404000I252000J0D01*
G01*
X164152000Y-93261000D02*
G75*
G02*
X163648000Y-93261000I-252000J0D01*
G01*
X163648000Y-93261000D02*
G75*
G02*
X164152000Y-93261000I252000J0D01*
G01*
%TO.C,SW3*%
D12*
X233850000Y-77500000D02*
X233850000Y-82000000D01*
X236350000Y-83250000D02*
X237850000Y-83250000D01*
X237850000Y-76250000D02*
X236350000Y-76250000D01*
X240350000Y-82000000D02*
X240350000Y-77500000D01*
%TO.C,R12*%
X218130000Y-88420000D02*
X218460000Y-88420000D01*
X218130000Y-94960000D02*
X218130000Y-88420000D01*
X218460000Y-94960000D02*
X218130000Y-94960000D01*
X220540000Y-94960000D02*
X220870000Y-94960000D01*
X220870000Y-88420000D02*
X220540000Y-88420000D01*
X220870000Y-94960000D02*
X220870000Y-88420000D01*
%TO.C,R7*%
X162130000Y-118420000D02*
X162460000Y-118420000D01*
X162130000Y-124960000D02*
X162130000Y-118420000D01*
X162460000Y-124960000D02*
X162130000Y-124960000D01*
X164540000Y-124960000D02*
X164870000Y-124960000D01*
X164870000Y-118420000D02*
X164540000Y-118420000D01*
X164870000Y-124960000D02*
X164870000Y-118420000D01*
%TO.C,C5*%
X174620000Y-104000000D02*
G75*
G02*
X169380000Y-104000000I-2620000J0D01*
G01*
X169380000Y-104000000D02*
G75*
G02*
X174620000Y-104000000I2620000J0D01*
G01*
%TO.C,C2*%
X200580000Y-96015000D02*
X200580000Y-94485000D01*
X202420000Y-94485000D02*
X202420000Y-96015000D01*
%TO.C,C10*%
X167620000Y-104000000D02*
G75*
G02*
X162380000Y-104000000I-2620000J0D01*
G01*
X162380000Y-104000000D02*
G75*
G02*
X167620000Y-104000000I2620000J0D01*
G01*
%TO.C,J2*%
X186590000Y-74040000D02*
X186590000Y-75440000D01*
X186590000Y-74040000D02*
X200410000Y-74040000D01*
X186590000Y-83740000D02*
X186590000Y-77960000D01*
X186590000Y-86260000D02*
X186590000Y-88760000D01*
X186590000Y-88760000D02*
X200410000Y-88760000D01*
X200410000Y-74040000D02*
X200410000Y-75440000D01*
X200410000Y-77960000D02*
X200410000Y-83740000D01*
X200410000Y-86260000D02*
X200410000Y-88760000D01*
%TO.C,R11*%
X171230000Y-111130000D02*
X177770000Y-111130000D01*
X171230000Y-111460000D02*
X171230000Y-111130000D01*
X171230000Y-113540000D02*
X171230000Y-113870000D01*
X171230000Y-113870000D02*
X177770000Y-113870000D01*
X177770000Y-111130000D02*
X177770000Y-111460000D01*
X177770000Y-113870000D02*
X177770000Y-113540000D01*
%TO.C,SW4*%
X249880000Y-89770000D02*
X249880000Y-88980000D01*
X249880000Y-89770000D02*
X250130000Y-89770000D01*
X249880000Y-95730000D02*
X250130000Y-95730000D01*
X249880000Y-96520000D02*
X249880000Y-95730000D01*
X250080000Y-88980000D02*
X249880000Y-88980000D01*
X250080000Y-96520000D02*
X249880000Y-96520000D01*
X252430000Y-90360000D02*
X252430000Y-95140000D01*
X252920000Y-96520000D02*
X256370000Y-96520000D01*
X256370000Y-88980000D02*
X252920000Y-88980000D01*
X256370000Y-96520000D02*
X256370000Y-88980000D01*
%TO.C,U2*%
D16*
X180430000Y-98970000D02*
X260690000Y-98970000D01*
X180430000Y-135030000D02*
X180430000Y-98970000D01*
X186520000Y-104550000D02*
X254600000Y-104550000D01*
X186520000Y-129450000D02*
X186520000Y-104550000D01*
X189570000Y-106840000D02*
X251800000Y-106840000D01*
X189570000Y-107350000D02*
X189570000Y-106840000D01*
X189570000Y-110900000D02*
X251800000Y-110900000D01*
X189570000Y-124870000D02*
X189570000Y-110900000D01*
X251800000Y-106840000D02*
X251800000Y-107350000D01*
X251800000Y-107350000D02*
X189570000Y-107350000D01*
X251800000Y-110900000D02*
X251800000Y-124870000D01*
X251800000Y-124870000D02*
X189570000Y-124870000D01*
X254600000Y-104550000D02*
X254600000Y-129450000D01*
X254600000Y-129450000D02*
X186520000Y-129450000D01*
X260690000Y-98970000D02*
X260690000Y-135030000D01*
X260690000Y-135030000D02*
X180430000Y-135030000D01*
D17*
X180590000Y-99000000D02*
G75*
G02*
X180530000Y-99000000I-30000J0D01*
G01*
X180530000Y-99000000D02*
G75*
G02*
X180590000Y-99000000I30000J0D01*
G01*
%TO.C,R4*%
D12*
X237630000Y-86540000D02*
X237960000Y-86540000D01*
X237630000Y-93080000D02*
X237630000Y-86540000D01*
X237960000Y-93080000D02*
X237630000Y-93080000D01*
X240040000Y-93080000D02*
X240370000Y-93080000D01*
X240370000Y-86540000D02*
X240040000Y-86540000D01*
X240370000Y-93080000D02*
X240370000Y-86540000D01*
%TO.C,R10*%
X166630000Y-128540000D02*
X166630000Y-135080000D01*
X166630000Y-135080000D02*
X166960000Y-135080000D01*
X166960000Y-128540000D02*
X166630000Y-128540000D01*
X169040000Y-128540000D02*
X169370000Y-128540000D01*
X169370000Y-128540000D02*
X169370000Y-135080000D01*
X169370000Y-135080000D02*
X169040000Y-135080000D01*
%TO.C,SW6*%
X250950000Y-77500000D02*
X250950000Y-82000000D01*
X253450000Y-83250000D02*
X254950000Y-83250000D01*
X254950000Y-76250000D02*
X253450000Y-76250000D01*
X257450000Y-82000000D02*
X257450000Y-77500000D01*
%TO.C,R2*%
X229630000Y-86540000D02*
X229960000Y-86540000D01*
X229630000Y-93080000D02*
X229630000Y-86540000D01*
X229960000Y-93080000D02*
X229630000Y-93080000D01*
X232040000Y-93080000D02*
X232370000Y-93080000D01*
X232370000Y-86540000D02*
X232040000Y-86540000D01*
X232370000Y-93080000D02*
X232370000Y-86540000D01*
%TO.C,R5*%
X241630000Y-86730000D02*
X241960000Y-86730000D01*
X241630000Y-93270000D02*
X241630000Y-86730000D01*
X241960000Y-93270000D02*
X241630000Y-93270000D01*
X244040000Y-93270000D02*
X244370000Y-93270000D01*
X244370000Y-86730000D02*
X244040000Y-86730000D01*
X244370000Y-93270000D02*
X244370000Y-86730000D01*
%TO.C,R9*%
X165630000Y-118420000D02*
X165960000Y-118420000D01*
X165630000Y-124960000D02*
X165630000Y-118420000D01*
X165960000Y-124960000D02*
X165630000Y-124960000D01*
X168040000Y-124960000D02*
X168370000Y-124960000D01*
X168370000Y-118420000D02*
X168040000Y-118420000D01*
X168370000Y-124960000D02*
X168370000Y-118420000D01*
%TO.C,R3*%
X233630000Y-86730000D02*
X233960000Y-86730000D01*
X233630000Y-93270000D02*
X233630000Y-86730000D01*
X233960000Y-93270000D02*
X233630000Y-93270000D01*
X236040000Y-93270000D02*
X236370000Y-93270000D01*
X236370000Y-86730000D02*
X236040000Y-86730000D01*
X236370000Y-93270000D02*
X236370000Y-86730000D01*
%TO.C,SW1*%
X216750000Y-77500000D02*
X216750000Y-82000000D01*
X219250000Y-83250000D02*
X220750000Y-83250000D01*
X220750000Y-76250000D02*
X219250000Y-76250000D01*
X223250000Y-82000000D02*
X223250000Y-77500000D01*
%TO.C,SW2*%
X225300000Y-77500000D02*
X225300000Y-82000000D01*
X227800000Y-83250000D02*
X229300000Y-83250000D01*
X229300000Y-76250000D02*
X227800000Y-76250000D01*
X231800000Y-82000000D02*
X231800000Y-77500000D01*
%TO.C,R8*%
X162130000Y-128420000D02*
X162460000Y-128420000D01*
X162130000Y-134960000D02*
X162130000Y-128420000D01*
X162460000Y-134960000D02*
X162130000Y-134960000D01*
X164540000Y-134960000D02*
X164870000Y-134960000D01*
X164870000Y-128420000D02*
X164540000Y-128420000D01*
X164870000Y-134960000D02*
X164870000Y-128420000D01*
%TO.C,C1*%
X196080000Y-96015000D02*
X196080000Y-94485000D01*
X197920000Y-94485000D02*
X197920000Y-96015000D01*
%TO.C,R1*%
X171540000Y-107130000D02*
X178080000Y-107130000D01*
X171540000Y-107460000D02*
X171540000Y-107130000D01*
X171540000Y-109540000D02*
X171540000Y-109870000D01*
X171540000Y-109870000D02*
X178080000Y-109870000D01*
X178080000Y-107130000D02*
X178080000Y-107460000D01*
X178080000Y-109870000D02*
X178080000Y-109540000D01*
%TO.C,Q2*%
X162927500Y-111440000D02*
X164447500Y-111440000D01*
X162927500Y-111490000D02*
X162927500Y-111440000D01*
X162927500Y-113390000D02*
X162927500Y-112610000D01*
X162927500Y-114560000D02*
X162927500Y-114510000D01*
X164447500Y-111440000D02*
X164447500Y-112440000D01*
X164447500Y-113560000D02*
X164447500Y-114560000D01*
X164447500Y-114560000D02*
X162927500Y-114560000D01*
X162627500Y-112950000D02*
X162147500Y-112950000D01*
X162387500Y-112620000D01*
X162627500Y-112950000D01*
G36*
X162627500Y-112950000D02*
G01*
X162147500Y-112950000D01*
X162387500Y-112620000D01*
X162627500Y-112950000D01*
G37*
%TO.C,U3*%
X187190000Y-90615000D02*
X191810000Y-90615000D01*
X191810000Y-97385000D02*
X187190000Y-97385000D01*
X185640000Y-91070000D02*
X185310000Y-91310000D01*
X185310000Y-90830000D01*
X185640000Y-91070000D01*
G36*
X185640000Y-91070000D02*
G01*
X185310000Y-91310000D01*
X185310000Y-90830000D01*
X185640000Y-91070000D01*
G37*
%TO.C,R6*%
X245130000Y-86540000D02*
X245460000Y-86540000D01*
X245130000Y-93080000D02*
X245130000Y-86540000D01*
X245460000Y-93080000D02*
X245130000Y-93080000D01*
X247540000Y-93080000D02*
X247870000Y-93080000D01*
X247870000Y-86540000D02*
X247540000Y-86540000D01*
X247870000Y-93080000D02*
X247870000Y-86540000D01*
%TO.C,SW5*%
X242400000Y-77500000D02*
X242400000Y-82000000D01*
X244900000Y-83250000D02*
X246400000Y-83250000D01*
X246400000Y-76250000D02*
X244900000Y-76250000D01*
X248900000Y-82000000D02*
X248900000Y-77500000D01*
%TO.C,R13*%
X224130000Y-88230000D02*
X224460000Y-88230000D01*
X224130000Y-94770000D02*
X224130000Y-88230000D01*
X224460000Y-94770000D02*
X224130000Y-94770000D01*
X226540000Y-94770000D02*
X226870000Y-94770000D01*
X226870000Y-88230000D02*
X226540000Y-88230000D01*
X226870000Y-94770000D02*
X226870000Y-88230000D01*
%TO.C,U4*%
X172040000Y-114590000D02*
X172040000Y-135030000D01*
X172040000Y-135030000D02*
X177340000Y-135030000D01*
X173690000Y-114590000D02*
X172040000Y-114590000D01*
X177340000Y-114590000D02*
X175690000Y-114590000D01*
X177340000Y-135030000D02*
X177340000Y-114590000D01*
X175690000Y-114590000D02*
G75*
G02*
X173690000Y-114590000I-1000000J0D01*
G01*
%TO.C,J1*%
X202640000Y-89700000D02*
X202640000Y-78480800D01*
X214360000Y-86500000D02*
X214360000Y-78480800D01*
X214360000Y-92010000D02*
X205800000Y-92010000D01*
X214360000Y-92010000D02*
X214360000Y-89500000D01*
%TO.C,C3*%
X177620000Y-98500000D02*
G75*
G02*
X172380000Y-98500000I-2620000J0D01*
G01*
X172380000Y-98500000D02*
G75*
G02*
X177620000Y-98500000I2620000J0D01*
G01*
%TO.C,Q1*%
X166240000Y-108940000D02*
X167760000Y-108940000D01*
X166240000Y-108990000D02*
X166240000Y-108940000D01*
X166240000Y-110890000D02*
X166240000Y-110110000D01*
X166240000Y-112060000D02*
X166240000Y-112010000D01*
X167760000Y-108940000D02*
X167760000Y-109940000D01*
X167760000Y-111060000D02*
X167760000Y-112060000D01*
X167760000Y-112060000D02*
X166240000Y-112060000D01*
X165940000Y-110450000D02*
X165460000Y-110450000D01*
X165700000Y-110120000D01*
X165940000Y-110450000D01*
G36*
X165940000Y-110450000D02*
G01*
X165460000Y-110450000D01*
X165700000Y-110120000D01*
X165940000Y-110450000D01*
G37*
%TD*%
M02*
